<svg xmlns="http://www.w3.org/2000/svg" width="17.25" height="15.114" viewBox="0 0 17.25 15.114">
  <g id="shopping-basket-button" transform="translate(0 -34.425)">
    <g id="shopping-basket" transform="translate(0 34.425)">
      <path id="Path_1703" data-name="Path 1703" d="M12.819,39.964,9.337,34.742a.977.977,0,0,0-.633-.317.72.72,0,0,0-.633.317L4.59,39.964H.791A.748.748,0,0,0,0,40.755v.237l1.978,7.359a1.613,1.613,0,0,0,1.5,1.187H13.769a1.525,1.525,0,0,0,1.5-1.187l1.978-7.359v-.237a.748.748,0,0,0-.791-.791Zm-6.489,0L8.7,36.482l2.374,3.482ZM8.7,46.295a1.583,1.583,0,1,1,1.583-1.583A1.587,1.587,0,0,1,8.7,46.295Z" transform="translate(0 -34.425)" fill="#1bc5bd"/>
    </g>
  </g>
</svg>
