<svg xmlns="http://www.w3.org/2000/svg" width="15.137" height="15.133" viewBox="0 0 15.137 15.133">
  <g id="layers" transform="translate(0 -0.062)">
    <g id="Group_2922" data-name="Group 2922" transform="translate(0 0.062)">
      <g id="Group_2921" data-name="Group 2921" transform="translate(0 0)">
        <path id="Path_1712" data-name="Path 1712" d="M14.5,4.038,8.262.258a1.325,1.325,0,0,0-1.388,0L.637,4.038a1.331,1.331,0,0,0,0,2.271l6.238,3.839a1.325,1.325,0,0,0,1.387,0L14.5,6.308a1.331,1.331,0,0,0,0-2.271Z" transform="translate(0 -0.062)"/>
      </g>
    </g>
    <g id="Group_2924" data-name="Group 2924" transform="translate(0 7.099)">
      <g id="Group_2923" data-name="Group 2923" transform="translate(0)">
        <path id="Path_1713" data-name="Path 1713" d="M14.906,238.1l-6.182,3.8a2.219,2.219,0,0,1-2.311,0L.23,238.1c-.143.214-.23.169-.23.438a1.321,1.321,0,0,0,.637,1.136l6.238,3.839a1.325,1.325,0,0,0,1.387,0l6.238-3.839c.4-.244.637-.373.637-.84A1.314,1.314,0,0,0,14.906,238.1Z" transform="translate(0 -238.099)"/>
      </g>
    </g>
    <g id="Group_2926" data-name="Group 2926" transform="translate(0 9.464)">
      <g id="Group_2925" data-name="Group 2925" transform="translate(0)">
        <path id="Path_1714" data-name="Path 1714" d="M14.906,318.1l-6.182,3.8a2.214,2.214,0,0,1-2.311,0L.23,318.1a.825.825,0,0,0-.23.56A1.321,1.321,0,0,0,.637,319.8l6.238,3.839a1.326,1.326,0,0,0,1.387,0L14.5,319.8a1.321,1.321,0,0,0,.637-1.136A.825.825,0,0,0,14.906,318.1Z" transform="translate(0 -318.099)"/>
      </g>
    </g>
  </g>
</svg>
