<svg xmlns="http://www.w3.org/2000/svg" width="16.965" height="15" viewBox="0 0 16.965 15">
  <g id="bar-chart" transform="translate(-1 -3)">
    <path id="Path_1706" data-name="Path 1706" d="M21.627,12.25V18H17V12.25A1.136,1.136,0,0,1,17.964,11h2.7A1.136,1.136,0,0,1,21.627,12.25Z" transform="translate(-3.662)" fill="#b5b5c3"/>
    <path id="Path_1707" data-name="Path 1707" d="M13.627,8.25V18H9V8.25A1.136,1.136,0,0,1,9.964,7h2.7A1.136,1.136,0,0,1,13.627,8.25Z" transform="translate(-1.831)" fill="#b5b5c3"/>
    <path id="Path_1708" data-name="Path 1708" d="M5.627,4.25V18H1V4.25A1.136,1.136,0,0,1,1.964,3h2.7A1.136,1.136,0,0,1,5.627,4.25Z" fill="#b5b5c3"/>
  </g>
</svg>
