<svg xmlns="http://www.w3.org/2000/svg" width="376.94" height="137.06" viewBox="0 0 376.94 137.06">
  <g id="Group_2912" data-name="Group 2912" transform="translate(-1407.228 -1700.31)">
    <g id="Background_Simple" data-name="Background Simple" transform="translate(1497 1709.757)">
      <g id="Background_Simple-2" data-name="Background Simple" transform="translate(0 0)">
        <g id="Group_2811" data-name="Group 2811">
          <path id="Path_1521" data-name="Path 1521" d="M610.1,230.513c.044-.08,277.984-1.616,277.819,0-.135,1.314,18.875-52.718-41.88-50.082,0,0,13.6-21.677-6.518-34.577-21.235-13.618-48.337-1.886-48.337-1.886s-24.244-44.761-79.1-31.142c-62.677,15.561-45.753,68.954-45.753,68.954S609.214,178.253,610.1,230.513Z" transform="translate(-610.091 -110.247)" fill="#f5f5ff"/>
          <path id="Path_1522" data-name="Path 1522" d="M610.1,230.513c.044-.08,277.984-1.616,277.819,0-.135,1.314,18.875-52.718-41.88-50.082,0,0,13.6-21.677-6.518-34.577-21.235-13.618-48.337-1.886-48.337-1.886s-24.244-44.761-79.1-31.142c-62.677,15.561-45.753,68.954-45.753,68.954S609.214,178.253,610.1,230.513Z" transform="translate(-610.091 -110.247)" fill="#f5f5ff"/>
        </g>
      </g>
    </g>
    <g id="Background_details" data-name="Background details" transform="translate(1541.232 1700.31)" opacity="0.24">
      <g id="Group_2831" data-name="Group 2831" transform="translate(25.585 22.4)">
        <path id="Path_1633" data-name="Path 1633" d="M534.407,455.8l-19.45-2.7-1.786,12.689,19.213,3.206Zm-1.158.352-9.532,4.585-7.758-6.99Zm-19.505,9.213,1.615-11.475,8.271,7.452,10.164-4.888-1.833,11.951Z" transform="translate(-513.171 -453.097)" fill="#0dc8de"/>
        <path id="Path_1634" data-name="Path 1634" d="M534.407,455.8l-19.45-2.7-1.786,12.689,19.213,3.206Zm-1.158.352-9.532,4.585-7.758-6.99Zm-19.505,9.213,1.615-11.475,8.271,7.452,10.164-4.888-1.833,11.951Z" transform="translate(-513.171 -453.097)" fill="#0dc8de" opacity="0.6"/>
      </g>
      <g id="Group_2832" data-name="Group 2832" transform="translate(126.324 13.071)">
        <path id="Path_1635" data-name="Path 1635" d="M720.9,435.342,704.91,449.331l20.585,24.786.165.2L742.5,459.951Zm20.487,24.118-17.875-4.833-2.28-18.136Zm-35.773-10.072,15.071-13.182,2.366,18.822,18.551,5.016-15.884,13.551Z" transform="translate(-704.91 -435.342)" fill="#0dc8de"/>
        <path id="Path_1636" data-name="Path 1636" d="M720.9,435.342,704.91,449.331l20.585,24.786.165.2L742.5,459.951Zm20.487,24.118-17.875-4.833-2.28-18.136Zm-35.773-10.072,15.071-13.182,2.366,18.822,18.551,5.016-15.884,13.551Z" transform="translate(-704.91 -435.342)" fill="#0dc8de" opacity="0.6"/>
      </g>
      <g id="Group_2835" data-name="Group 2835" transform="translate(0 0)">
        <g id="Group_2833" data-name="Group 2833">
          <path id="Path_1637" data-name="Path 1637" d="M464.729,495.863h0a.254.254,0,0,1-.249-.258q.009-.509.022-1.018a.25.25,0,0,1,.261-.247.253.253,0,0,1,.247.26q-.013.507-.022,1.015A.254.254,0,0,1,464.729,495.863Zm.109-3.555h-.012a.254.254,0,0,1-.242-.265q.022-.508.048-1.017a.254.254,0,0,1,.508.026q-.026.506-.048,1.013A.254.254,0,0,1,464.838,492.308Zm.2-3.55h-.018a.254.254,0,0,1-.236-.271q.035-.508.075-1.015a.249.249,0,0,1,.273-.234.254.254,0,0,1,.233.273q-.039.505-.075,1.011A.254.254,0,0,1,465.04,488.758Zm.3-3.543h-.025a.254.254,0,0,1-.228-.278q.05-.506.1-1.012a.251.251,0,0,1,.279-.226.254.254,0,0,1,.226.28q-.053.5-.1,1.008A.253.253,0,0,1,465.338,485.215Zm.4-3.533-.032,0a.254.254,0,0,1-.22-.284q.064-.5.132-1.009a.254.254,0,0,1,.5.068q-.069.5-.132,1A.254.254,0,0,1,465.735,481.681Zm.5-3.52a.259.259,0,0,1-.04,0,.254.254,0,0,1-.211-.291q.079-.5.163-1a.254.254,0,0,1,.5.084q-.084.5-.163,1A.254.254,0,0,1,466.237,478.162Zm.609-3.5a.24.24,0,0,1-.048,0,.254.254,0,0,1-.2-.3q.1-.5.2-1a.254.254,0,0,1,.5.1q-.1.5-.194.995A.254.254,0,0,1,466.846,474.659Zm.722-3.482a.254.254,0,0,1-.248-.309q.112-.5.227-.992a.254.254,0,0,1,.495.116q-.116.493-.227.987A.253.253,0,0,1,467.568,471.178Zm.838-3.455a.273.273,0,0,1-.065-.008.255.255,0,0,1-.182-.31q.128-.493.262-.984a.254.254,0,1,1,.49.133c-.088.326-.175.652-.26.979A.254.254,0,0,1,468.406,467.723Zm.957-3.424a.248.248,0,0,1-.072-.011.254.254,0,0,1-.171-.316q.146-.489.3-.975a.254.254,0,0,1,.485.151c-.1.322-.2.646-.3.969A.254.254,0,0,1,469.363,464.3Zm1.081-3.387a.246.246,0,0,1-.081-.014.255.255,0,0,1-.159-.322q.164-.483.333-.963a.254.254,0,1,1,.479.169q-.168.478-.331.957A.254.254,0,0,1,470.444,460.912Zm1.208-3.345a.245.245,0,0,1-.09-.017.254.254,0,0,1-.147-.328q.182-.476.37-.949a.254.254,0,1,1,.472.187q-.186.47-.367.944A.254.254,0,0,1,471.652,457.567Zm1.337-3.295a.259.259,0,0,1-.1-.02.254.254,0,0,1-.133-.334q.2-.468.408-.934a.254.254,0,0,1,.464.206q-.2.463-.405.928A.254.254,0,0,1,472.99,454.272Zm1.469-3.238a.257.257,0,0,1-.109-.025.253.253,0,0,1-.119-.339q.22-.459.446-.917a.254.254,0,1,1,.456.225q-.225.455-.443.912A.255.255,0,0,1,474.459,451.034Zm1.6-3.176a.251.251,0,0,1-.119-.03.253.253,0,0,1-.1-.343q.239-.45.484-.9a.254.254,0,0,1,.446.244q-.244.444-.482.892A.254.254,0,0,1,476.062,447.858Zm1.741-3.1a.255.255,0,0,1-.219-.384q.26-.439.526-.874a.254.254,0,1,1,.433.265q-.265.433-.523.868A.254.254,0,0,1,477.8,444.756Zm1.886-3.017a.254.254,0,0,1-.212-.394q.281-.426.567-.848a.254.254,0,1,1,.421.285q-.285.419-.564.843A.253.253,0,0,1,479.688,441.739Zm2.027-2.924a.254.254,0,0,1-.2-.4q.3-.412.606-.821a.254.254,0,0,1,.407.3q-.3.406-.6.815A.253.253,0,0,1,481.715,438.815Zm2.162-2.825a.254.254,0,0,1-.2-.413q.32-.4.644-.791a.254.254,0,1,1,.391.324q-.322.39-.639.785A.254.254,0,0,1,483.877,435.99Zm2.292-2.719a.254.254,0,0,1-.19-.422q.337-.382.68-.759a.254.254,0,1,1,.376.342q-.341.374-.676.754A.256.256,0,0,1,486.17,433.27Zm111.259-.833a.253.253,0,0,1-.1-.019q-.472-.191-.943-.384a.254.254,0,1,1,.194-.47l.939.383a.254.254,0,0,1-.1.49Zm-3.284-1.364a.244.244,0,0,1-.1-.02l-.935-.4a.254.254,0,1,1,.2-.467l.933.4a.254.254,0,0,1-.1.488Zm-105.557-.41a.254.254,0,0,1-.182-.431q.355-.366.716-.726a.254.254,0,0,1,.359.359q-.358.358-.711.721A.255.255,0,0,1,488.588,430.663Zm102.293-1a.255.255,0,0,1-.1-.022l-.93-.411a.254.254,0,1,1,.206-.464l.928.41a.254.254,0,0,1-.1.487Zm-3.247-1.449a.248.248,0,0,1-.1-.023l-.926-.419a.254.254,0,0,1,.21-.463l.925.419a.254.254,0,0,1-.1.485Zm-96.505-.036a.254.254,0,0,1-.173-.44q.373-.347.75-.69a.254.254,0,1,1,.341.377q-.375.34-.744.685A.253.253,0,0,1,491.128,428.176ZM584.4,426.74a.251.251,0,0,1-.106-.023l-.925-.423a.254.254,0,0,1,.212-.462l.924.423a.254.254,0,0,1-.106.485Zm-90.609-.924a.254.254,0,0,1-.164-.448q.389-.329.783-.652a.254.254,0,1,1,.322.393q-.391.321-.777.647A.254.254,0,0,1,493.786,425.816Zm87.376-.558a.251.251,0,0,1-.106-.023l-.924-.423a.254.254,0,0,1,.212-.462l.923.423a.254.254,0,0,1-.106.485Zm-3.234-1.48a.25.25,0,0,1-.105-.023l-.925-.42a.254.254,0,1,1,.21-.462l.925.42a.254.254,0,0,1-.105.485Zm-81.369-.185a.254.254,0,0,1-.154-.457q.406-.309.815-.611a.254.254,0,0,1,.3.409q-.407.3-.809.607A.254.254,0,0,1,496.56,423.593Zm78.128-1.279a.257.257,0,0,1-.1-.022l-.928-.413a.254.254,0,1,1,.207-.464l.928.414a.254.254,0,0,1-.1.486Zm-75.246-.8a.254.254,0,0,1-.143-.463q.421-.288.846-.568a.254.254,0,0,1,.28.424q-.422.278-.839.563A.254.254,0,0,1,499.441,421.514Zm71.992-.635a.26.26,0,0,1-.1-.02l-.932-.4a.254.254,0,1,1,.2-.467l.934.4a.254.254,0,0,1-.1.487Zm-69-1.289a.254.254,0,0,1-.132-.471q.435-.264.875-.522a.254.254,0,0,1,.257.439q-.436.255-.868.518A.255.255,0,0,1,502.429,419.59Zm65.732-.1a.252.252,0,0,1-.1-.019q-.468-.195-.938-.386a.254.254,0,0,1,.192-.471l.941.387a.254.254,0,0,1-.1.489Zm-3.3-1.331a.251.251,0,0,1-.093-.018q-.471-.185-.945-.368a.254.254,0,1,1,.182-.474q.474.183.948.369a.254.254,0,0,1-.093.491Zm-59.347-.328a.254.254,0,0,1-.12-.478q.449-.24.9-.472a.254.254,0,0,1,.232.452q-.45.231-.9.469A.26.26,0,0,1,505.517,417.831Zm56.021-.934a.254.254,0,0,1-.087-.016c-.318-.116-.635-.232-.954-.345a.254.254,0,0,1,.171-.479q.479.172.958.347a.254.254,0,0,1-.088.493Zm-52.84-.649a.254.254,0,0,1-.107-.484q.463-.214.929-.42a.254.254,0,1,1,.206.464q-.463.2-.922.417A.25.25,0,0,1,508.7,416.248Zm49.485-.531a.261.261,0,0,1-.081-.013q-.481-.162-.962-.32a.254.254,0,0,1,.158-.483q.483.158.967.322a.254.254,0,0,1-.081.494Zm-46.217-.865a.254.254,0,0,1-.092-.491q.474-.186.953-.364a.254.254,0,0,1,.178.476q-.474.177-.945.361A.25.25,0,0,1,511.965,414.852Zm42.829-.219a.256.256,0,0,1-.073-.011q-.486-.147-.972-.289a.254.254,0,0,1,.143-.488q.489.143.977.292a.254.254,0,0,1-.074.5Zm-3.42-.976a.258.258,0,0,1-.066-.008q-.49-.131-.981-.256a.254.254,0,1,1,.126-.492q.493.126.987.257a.254.254,0,0,1-.065.5Zm-36.062,0a.254.254,0,0,1-.078-.5q.486-.157.974-.305a.254.254,0,1,1,.148.486q-.484.147-.966.3A.252.252,0,0,1,515.313,413.655Zm32.608-.847a.258.258,0,0,1-.056-.006q-.495-.112-.99-.217a.254.254,0,0,1,.106-.5q.5.106,1,.219a.254.254,0,0,1-.056.5Zm-29.193-.141a.254.254,0,0,1-.062-.5q.494-.126.991-.243a.254.254,0,1,1,.117.494q-.493.117-.983.241A.239.239,0,0,1,518.728,412.667Zm25.707-.567a.268.268,0,0,1-.046,0q-.5-.091-1-.174a.254.254,0,0,1,.083-.5q.5.084,1.005.175a.254.254,0,0,1-.045.5Zm-22.234-.2a.254.254,0,0,1-.047-.5q.5-.095,1.007-.179a.254.254,0,1,1,.084.5q-.5.084-1,.177A.249.249,0,0,1,522.2,411.9Zm18.72-.35-.034,0q-.5-.066-1.005-.126a.254.254,0,0,1,.059-.5c.338.04.675.082,1.012.127a.254.254,0,0,1-.033.506Zm-15.2-.189a.254.254,0,0,1-.03-.506q.508-.061,1.017-.111a.254.254,0,0,1,.05.505q-.5.05-1.007.111Zm11.668-.187h-.021q-.5-.041-1.009-.073a.255.255,0,0,1-.237-.27.258.258,0,0,1,.27-.237q.509.032,1.018.074a.254.254,0,0,1-.02.507Zm-8.122-.119a.254.254,0,0,1-.013-.508q.51-.028,1.019-.046a.246.246,0,0,1,.263.245.253.253,0,0,1-.244.263q-.505.018-1.01.045Zm4.571-.066h-.006q-.506-.012-1.012-.016a.254.254,0,0,1,0-.508h0q.51,0,1.02.016a.254.254,0,0,1-.006.508Z" transform="translate(-464.475 -410.463)" fill="#0dc8de"/>
          <path id="Path_1638" data-name="Path 1638" d="M464.729,495.863h0a.254.254,0,0,1-.249-.258q.009-.509.022-1.018a.25.25,0,0,1,.261-.247.253.253,0,0,1,.247.26q-.013.507-.022,1.015A.254.254,0,0,1,464.729,495.863Zm.109-3.555h-.012a.254.254,0,0,1-.242-.265q.022-.508.048-1.017a.254.254,0,0,1,.508.026q-.026.506-.048,1.013A.254.254,0,0,1,464.838,492.308Zm.2-3.55h-.018a.254.254,0,0,1-.236-.271q.035-.508.075-1.015a.249.249,0,0,1,.273-.234.254.254,0,0,1,.233.273q-.039.505-.075,1.011A.254.254,0,0,1,465.04,488.758Zm.3-3.543h-.025a.254.254,0,0,1-.228-.278q.05-.506.1-1.012a.251.251,0,0,1,.279-.226.254.254,0,0,1,.226.28q-.053.5-.1,1.008A.253.253,0,0,1,465.338,485.215Zm.4-3.533-.032,0a.254.254,0,0,1-.22-.284q.064-.5.132-1.009a.254.254,0,0,1,.5.068q-.069.5-.132,1A.254.254,0,0,1,465.735,481.681Zm.5-3.52a.259.259,0,0,1-.04,0,.254.254,0,0,1-.211-.291q.079-.5.163-1a.254.254,0,0,1,.5.084q-.084.5-.163,1A.254.254,0,0,1,466.237,478.162Zm.609-3.5a.24.24,0,0,1-.048,0,.254.254,0,0,1-.2-.3q.1-.5.2-1a.254.254,0,0,1,.5.1q-.1.5-.194.995A.254.254,0,0,1,466.846,474.659Zm.722-3.482a.254.254,0,0,1-.248-.309q.112-.5.227-.992a.254.254,0,0,1,.495.116q-.116.493-.227.987A.253.253,0,0,1,467.568,471.178Zm.838-3.455a.273.273,0,0,1-.065-.008.255.255,0,0,1-.182-.31q.128-.493.262-.984a.254.254,0,1,1,.49.133c-.088.326-.175.652-.26.979A.254.254,0,0,1,468.406,467.723Zm.957-3.424a.248.248,0,0,1-.072-.011.254.254,0,0,1-.171-.316q.146-.489.3-.975a.254.254,0,0,1,.485.151c-.1.322-.2.646-.3.969A.254.254,0,0,1,469.363,464.3Zm1.081-3.387a.246.246,0,0,1-.081-.014.255.255,0,0,1-.159-.322q.164-.483.333-.963a.254.254,0,1,1,.479.169q-.168.478-.331.957A.254.254,0,0,1,470.444,460.912Zm1.208-3.345a.245.245,0,0,1-.09-.017.254.254,0,0,1-.147-.328q.182-.476.37-.949a.254.254,0,1,1,.472.187q-.186.47-.367.944A.254.254,0,0,1,471.652,457.567Zm1.337-3.295a.259.259,0,0,1-.1-.02.254.254,0,0,1-.133-.334q.2-.468.408-.934a.254.254,0,0,1,.464.206q-.2.463-.405.928A.254.254,0,0,1,472.99,454.272Zm1.469-3.238a.257.257,0,0,1-.109-.025.253.253,0,0,1-.119-.339q.22-.459.446-.917a.254.254,0,1,1,.456.225q-.225.455-.443.912A.255.255,0,0,1,474.459,451.034Zm1.6-3.176a.251.251,0,0,1-.119-.03.253.253,0,0,1-.1-.343q.239-.45.484-.9a.254.254,0,0,1,.446.244q-.244.444-.482.892A.254.254,0,0,1,476.062,447.858Zm1.741-3.1a.255.255,0,0,1-.219-.384q.26-.439.526-.874a.254.254,0,1,1,.433.265q-.265.433-.523.868A.254.254,0,0,1,477.8,444.756Zm1.886-3.017a.254.254,0,0,1-.212-.394q.281-.426.567-.848a.254.254,0,1,1,.421.285q-.285.419-.564.843A.253.253,0,0,1,479.688,441.739Zm2.027-2.924a.254.254,0,0,1-.2-.4q.3-.412.606-.821a.254.254,0,0,1,.407.3q-.3.406-.6.815A.253.253,0,0,1,481.715,438.815Zm2.162-2.825a.254.254,0,0,1-.2-.413q.32-.4.644-.791a.254.254,0,1,1,.391.324q-.322.39-.639.785A.254.254,0,0,1,483.877,435.99Zm2.292-2.719a.254.254,0,0,1-.19-.422q.337-.382.68-.759a.254.254,0,1,1,.376.342q-.341.374-.676.754A.256.256,0,0,1,486.17,433.27Zm111.259-.833a.253.253,0,0,1-.1-.019q-.472-.191-.943-.384a.254.254,0,1,1,.194-.47l.939.383a.254.254,0,0,1-.1.49Zm-3.284-1.364a.244.244,0,0,1-.1-.02l-.935-.4a.254.254,0,1,1,.2-.467l.933.4a.254.254,0,0,1-.1.488Zm-105.557-.41a.254.254,0,0,1-.182-.431q.355-.366.716-.726a.254.254,0,0,1,.359.359q-.358.358-.711.721A.255.255,0,0,1,488.588,430.663Zm102.293-1a.255.255,0,0,1-.1-.022l-.93-.411a.254.254,0,1,1,.206-.464l.928.41a.254.254,0,0,1-.1.487Zm-3.247-1.449a.248.248,0,0,1-.1-.023l-.926-.419a.254.254,0,0,1,.21-.463l.925.419a.254.254,0,0,1-.1.485Zm-96.505-.036a.254.254,0,0,1-.173-.44q.373-.347.75-.69a.254.254,0,1,1,.341.377q-.375.34-.744.685A.253.253,0,0,1,491.128,428.176ZM584.4,426.74a.251.251,0,0,1-.106-.023l-.925-.423a.254.254,0,0,1,.212-.462l.924.423a.254.254,0,0,1-.106.485Zm-90.609-.924a.254.254,0,0,1-.164-.448q.389-.329.783-.652a.254.254,0,1,1,.322.393q-.391.321-.777.647A.254.254,0,0,1,493.786,425.816Zm87.376-.558a.251.251,0,0,1-.106-.023l-.924-.423a.254.254,0,0,1,.212-.462l.923.423a.254.254,0,0,1-.106.485Zm-3.234-1.48a.25.25,0,0,1-.105-.023l-.925-.42a.254.254,0,1,1,.21-.462l.925.42a.254.254,0,0,1-.105.485Zm-81.369-.185a.254.254,0,0,1-.154-.457q.406-.309.815-.611a.254.254,0,0,1,.3.409q-.407.3-.809.607A.254.254,0,0,1,496.56,423.593Zm78.128-1.279a.257.257,0,0,1-.1-.022l-.928-.413a.254.254,0,1,1,.207-.464l.928.414a.254.254,0,0,1-.1.486Zm-75.246-.8a.254.254,0,0,1-.143-.463q.421-.288.846-.568a.254.254,0,0,1,.28.424q-.422.278-.839.563A.254.254,0,0,1,499.441,421.514Zm71.992-.635a.26.26,0,0,1-.1-.02l-.932-.4a.254.254,0,1,1,.2-.467l.934.4a.254.254,0,0,1-.1.487Zm-69-1.289a.254.254,0,0,1-.132-.471q.435-.264.875-.522a.254.254,0,0,1,.257.439q-.436.255-.868.518A.255.255,0,0,1,502.429,419.59Zm65.732-.1a.252.252,0,0,1-.1-.019q-.468-.195-.938-.386a.254.254,0,0,1,.192-.471l.941.387a.254.254,0,0,1-.1.489Zm-3.3-1.331a.251.251,0,0,1-.093-.018q-.471-.185-.945-.368a.254.254,0,1,1,.182-.474q.474.183.948.369a.254.254,0,0,1-.093.491Zm-59.347-.328a.254.254,0,0,1-.12-.478q.449-.24.9-.472a.254.254,0,0,1,.232.452q-.45.231-.9.469A.26.26,0,0,1,505.517,417.831Zm56.021-.934a.254.254,0,0,1-.087-.016c-.318-.116-.635-.232-.954-.345a.254.254,0,0,1,.171-.479q.479.172.958.347a.254.254,0,0,1-.088.493Zm-52.84-.649a.254.254,0,0,1-.107-.484q.463-.214.929-.42a.254.254,0,1,1,.206.464q-.463.2-.922.417A.25.25,0,0,1,508.7,416.248Zm49.485-.531a.261.261,0,0,1-.081-.013q-.481-.162-.962-.32a.254.254,0,0,1,.158-.483q.483.158.967.322a.254.254,0,0,1-.081.494Zm-46.217-.865a.254.254,0,0,1-.092-.491q.474-.186.953-.364a.254.254,0,0,1,.178.476q-.474.177-.945.361A.25.25,0,0,1,511.965,414.852Zm42.829-.219a.256.256,0,0,1-.073-.011q-.486-.147-.972-.289a.254.254,0,0,1,.143-.488q.489.143.977.292a.254.254,0,0,1-.074.5Zm-3.42-.976a.258.258,0,0,1-.066-.008q-.49-.131-.981-.256a.254.254,0,1,1,.126-.492q.493.126.987.257a.254.254,0,0,1-.065.5Zm-36.062,0a.254.254,0,0,1-.078-.5q.486-.157.974-.305a.254.254,0,1,1,.148.486q-.484.147-.966.3A.252.252,0,0,1,515.313,413.655Zm32.608-.847a.258.258,0,0,1-.056-.006q-.495-.112-.99-.217a.254.254,0,0,1,.106-.5q.5.106,1,.219a.254.254,0,0,1-.056.5Zm-29.193-.141a.254.254,0,0,1-.062-.5q.494-.126.991-.243a.254.254,0,1,1,.117.494q-.493.117-.983.241A.239.239,0,0,1,518.728,412.667Zm25.707-.567a.268.268,0,0,1-.046,0q-.5-.091-1-.174a.254.254,0,0,1,.083-.5q.5.084,1.005.175a.254.254,0,0,1-.045.5Zm-22.234-.2a.254.254,0,0,1-.047-.5q.5-.095,1.007-.179a.254.254,0,1,1,.084.5q-.5.084-1,.177A.249.249,0,0,1,522.2,411.9Zm18.72-.35-.034,0q-.5-.066-1.005-.126a.254.254,0,0,1,.059-.5c.338.04.675.082,1.012.127a.254.254,0,0,1-.033.506Zm-15.2-.189a.254.254,0,0,1-.03-.506q.508-.061,1.017-.111a.254.254,0,0,1,.05.505q-.5.05-1.007.111Zm11.668-.187h-.021q-.5-.041-1.009-.073a.255.255,0,0,1-.237-.27.258.258,0,0,1,.27-.237q.509.032,1.018.074a.254.254,0,0,1-.02.507Zm-8.122-.119a.254.254,0,0,1-.013-.508q.51-.028,1.019-.046a.246.246,0,0,1,.263.245.253.253,0,0,1-.244.263q-.505.018-1.01.045Zm4.571-.066h-.006q-.506-.012-1.012-.016a.254.254,0,0,1,0-.508h0q.51,0,1.02.016a.254.254,0,0,1-.006.508Z" transform="translate(-464.475 -410.463)" fill="#0dc8de" opacity="0.6"/>
        </g>
        <g id="Group_2834" data-name="Group 2834" transform="translate(156.155 28.372)">
          <path id="Path_1639" data-name="Path 1639" d="M803.067,531.793a.248.248,0,0,1-.111-.026.254.254,0,0,1-.117-.339q.222-.455.437-.913a.254.254,0,0,1,.46.216q-.217.462-.441.919A.253.253,0,0,1,803.067,531.793Zm1.474-3.236a.254.254,0,0,1-.234-.353q.2-.466.387-.935a.254.254,0,0,1,.471.19q-.191.474-.39.944A.254.254,0,0,1,804.542,528.557Zm1.292-3.313a.246.246,0,0,1-.086-.015.254.254,0,0,1-.154-.325q.171-.476.333-.955a.254.254,0,1,1,.481.162q-.163.484-.335.964A.255.255,0,0,1,805.833,525.244Zm1.1-3.382a.26.26,0,0,1-.071-.01.254.254,0,0,1-.172-.315q.143-.486.276-.974a.254.254,0,1,1,.49.135q-.135.491-.278.982A.254.254,0,0,1,806.933,521.862Zm.9-3.441a.238.238,0,0,1-.057-.007.254.254,0,0,1-.191-.3q.113-.493.216-.988a.254.254,0,1,1,.5.1q-.1.5-.218,1A.255.255,0,0,1,807.829,518.422Zm.682-3.49a.213.213,0,0,1-.041,0,.253.253,0,0,1-.21-.291q.08-.5.152-1a.254.254,0,0,1,.5.072q-.073.506-.154,1.009A.254.254,0,0,1,808.511,514.931Zm.454-3.527h-.024a.254.254,0,0,1-.23-.277q.048-.5.086-1.008a.254.254,0,0,1,.507.038q-.039.509-.086,1.018A.255.255,0,0,1,808.965,511.4Zm.211-3.55h-.006a.254.254,0,0,1-.248-.26q.012-.505.014-1.011a.254.254,0,0,1,.254-.253h0a.254.254,0,0,1,.253.255q0,.511-.014,1.021A.255.255,0,0,1,809.176,507.855Zm-.044-3.555a.254.254,0,0,1-.253-.242q-.025-.5-.061-1.009a.253.253,0,0,1,.235-.271.258.258,0,0,1,.272.235q.036.509.061,1.019a.254.254,0,0,1-.241.266Zm-.313-3.542a.253.253,0,0,1-.251-.222q-.064-.5-.139-1a.255.255,0,0,1,.213-.289.259.259,0,0,1,.289.213q.076.506.141,1.012a.254.254,0,0,1-.22.284Zm-.591-3.506a.253.253,0,0,1-.248-.2q-.1-.493-.221-.985a.254.254,0,0,1,.494-.117q.117.5.224,1a.255.255,0,0,1-.2.3A.26.26,0,0,1,808.228,497.252Zm-.886-3.442a.255.255,0,0,1-.243-.18q-.147-.483-.305-.963a.254.254,0,1,1,.482-.159q.16.485.31.974a.255.255,0,0,1-.169.317A.258.258,0,0,1,807.342,493.81Zm-1.18-3.353a.254.254,0,0,1-.236-.16q-.188-.468-.387-.933a.254.254,0,1,1,.467-.2q.2.47.391.944a.254.254,0,0,1-.141.33A.249.249,0,0,1,806.162,490.457Zm-1.464-3.24a.253.253,0,0,1-.227-.139q-.228-.451-.467-.9a.254.254,0,1,1,.448-.241q.243.451.473.907a.254.254,0,0,1-.112.341A.248.248,0,0,1,804.7,487.217Zm-1.741-3.1a.253.253,0,0,1-.215-.12q-.266-.43-.544-.852a.254.254,0,1,1,.424-.278q.281.427.551.862a.254.254,0,0,1-.216.388Zm-2.009-2.934a.253.253,0,0,1-.2-.1q-.3-.4-.618-.8a.254.254,0,0,1,.4-.316q.319.4.627.809a.254.254,0,0,1-.05.356A.251.251,0,0,1,800.948,481.182Zm-2.27-2.736a.254.254,0,0,1-.188-.082q-.34-.373-.691-.737a.254.254,0,0,1,.366-.353q.355.368.7.746a.254.254,0,0,1-.188.426Zm-2.523-2.505a.254.254,0,0,1-.17-.065q-.376-.337-.759-.664a.254.254,0,1,1,.328-.387q.389.331.77.673a.254.254,0,0,1-.17.443Zm-2.761-2.238a.251.251,0,0,1-.149-.049q-.407-.3-.824-.58a.254.254,0,0,1,.286-.42q.422.288.836.589a.254.254,0,0,1-.149.459Zm-2.981-1.933a.253.253,0,0,1-.127-.034q-.436-.251-.881-.487a.254.254,0,0,1,.239-.448q.452.24.9.495a.254.254,0,0,1-.127.474Zm-3.177-1.594a.256.256,0,0,1-.1-.021q-.463-.2-.931-.39a.254.254,0,1,1,.189-.471q.475.191.945.4a.254.254,0,0,1-.1.487Zm-3.324-1.262a.246.246,0,0,1-.079-.013q-.479-.158-.963-.3a.254.254,0,1,1,.147-.486q.49.148.975.307a.254.254,0,0,1-.079.5Zm-3.418-.976a.249.249,0,0,1-.061-.008q-.49-.121-.984-.234a.254.254,0,1,1,.113-.495q.5.114.993.236a.254.254,0,0,1-.061.5Zm-3.474-.752a.24.24,0,0,1-.047,0q-.5-.094-1-.182a.254.254,0,0,1,.088-.5q.5.088,1,.183a.254.254,0,0,1-.047.5Zm-3.505-.592a.25.25,0,0,1-.039,0q-.5-.076-1-.149a.254.254,0,1,1,.073-.5q.5.073,1.007.149a.254.254,0,0,1-.038.5Zm-3.521-.5-.034,0-1.007-.134a.254.254,0,1,1,.067-.5l1.008.134a.254.254,0,0,1-.034.505Zm-3.525-.468-.034,0-1.008-.137a.254.254,0,0,1,.068-.5l1.007.137a.254.254,0,0,1-.033.505Zm-3.522-.5a.241.241,0,0,1-.039,0q-.5-.076-1.007-.158a.254.254,0,0,1,.08-.5q.5.08,1,.158a.254.254,0,0,1-.037.5Z" transform="translate(-761.688 -464.463)" fill="#0dc8de"/>
          <path id="Path_1640" data-name="Path 1640" d="M803.067,531.793a.248.248,0,0,1-.111-.026.254.254,0,0,1-.117-.339q.222-.455.437-.913a.254.254,0,0,1,.46.216q-.217.462-.441.919A.253.253,0,0,1,803.067,531.793Zm1.474-3.236a.254.254,0,0,1-.234-.353q.2-.466.387-.935a.254.254,0,0,1,.471.19q-.191.474-.39.944A.254.254,0,0,1,804.542,528.557Zm1.292-3.313a.246.246,0,0,1-.086-.015.254.254,0,0,1-.154-.325q.171-.476.333-.955a.254.254,0,1,1,.481.162q-.163.484-.335.964A.255.255,0,0,1,805.833,525.244Zm1.1-3.382a.26.26,0,0,1-.071-.01.254.254,0,0,1-.172-.315q.143-.486.276-.974a.254.254,0,1,1,.49.135q-.135.491-.278.982A.254.254,0,0,1,806.933,521.862Zm.9-3.441a.238.238,0,0,1-.057-.007.254.254,0,0,1-.191-.3q.113-.493.216-.988a.254.254,0,1,1,.5.1q-.1.5-.218,1A.255.255,0,0,1,807.829,518.422Zm.682-3.49a.213.213,0,0,1-.041,0,.253.253,0,0,1-.21-.291q.08-.5.152-1a.254.254,0,0,1,.5.072q-.073.506-.154,1.009A.254.254,0,0,1,808.511,514.931Zm.454-3.527h-.024a.254.254,0,0,1-.23-.277q.048-.5.086-1.008a.254.254,0,0,1,.507.038q-.039.509-.086,1.018A.255.255,0,0,1,808.965,511.4Zm.211-3.55h-.006a.254.254,0,0,1-.248-.26q.012-.505.014-1.011a.254.254,0,0,1,.254-.253h0a.254.254,0,0,1,.253.255q0,.511-.014,1.021A.255.255,0,0,1,809.176,507.855Zm-.044-3.555a.254.254,0,0,1-.253-.242q-.025-.5-.061-1.009a.253.253,0,0,1,.235-.271.258.258,0,0,1,.272.235q.036.509.061,1.019a.254.254,0,0,1-.241.266Zm-.313-3.542a.253.253,0,0,1-.251-.222q-.064-.5-.139-1a.255.255,0,0,1,.213-.289.259.259,0,0,1,.289.213q.076.506.141,1.012a.254.254,0,0,1-.22.284Zm-.591-3.506a.253.253,0,0,1-.248-.2q-.1-.493-.221-.985a.254.254,0,0,1,.494-.117q.117.5.224,1a.255.255,0,0,1-.2.3A.26.26,0,0,1,808.228,497.252Zm-.886-3.442a.255.255,0,0,1-.243-.18q-.147-.483-.305-.963a.254.254,0,1,1,.482-.159q.16.485.31.974a.255.255,0,0,1-.169.317A.258.258,0,0,1,807.342,493.81Zm-1.18-3.353a.254.254,0,0,1-.236-.16q-.188-.468-.387-.933a.254.254,0,1,1,.467-.2q.2.47.391.944a.254.254,0,0,1-.141.33A.249.249,0,0,1,806.162,490.457Zm-1.464-3.24a.253.253,0,0,1-.227-.139q-.228-.451-.467-.9a.254.254,0,1,1,.448-.241q.243.451.473.907a.254.254,0,0,1-.112.341A.248.248,0,0,1,804.7,487.217Zm-1.741-3.1a.253.253,0,0,1-.215-.12q-.266-.43-.544-.852a.254.254,0,1,1,.424-.278q.281.427.551.862a.254.254,0,0,1-.216.388Zm-2.009-2.934a.253.253,0,0,1-.2-.1q-.3-.4-.618-.8a.254.254,0,0,1,.4-.316q.319.4.627.809a.254.254,0,0,1-.05.356A.251.251,0,0,1,800.948,481.182Zm-2.27-2.736a.254.254,0,0,1-.188-.082q-.34-.373-.691-.737a.254.254,0,0,1,.366-.353q.355.368.7.746a.254.254,0,0,1-.188.426Zm-2.523-2.505a.254.254,0,0,1-.17-.065q-.376-.337-.759-.664a.254.254,0,1,1,.328-.387q.389.331.77.673a.254.254,0,0,1-.17.443Zm-2.761-2.238a.251.251,0,0,1-.149-.049q-.407-.3-.824-.58a.254.254,0,0,1,.286-.42q.422.288.836.589a.254.254,0,0,1-.149.459Zm-2.981-1.933a.253.253,0,0,1-.127-.034q-.436-.251-.881-.487a.254.254,0,0,1,.239-.448q.452.24.9.495a.254.254,0,0,1-.127.474Zm-3.177-1.594a.256.256,0,0,1-.1-.021q-.463-.2-.931-.39a.254.254,0,1,1,.189-.471q.475.191.945.4a.254.254,0,0,1-.1.487Zm-3.324-1.262a.246.246,0,0,1-.079-.013q-.479-.158-.963-.3a.254.254,0,1,1,.147-.486q.49.148.975.307a.254.254,0,0,1-.079.5Zm-3.418-.976a.249.249,0,0,1-.061-.008q-.49-.121-.984-.234a.254.254,0,1,1,.113-.495q.5.114.993.236a.254.254,0,0,1-.061.5Zm-3.474-.752a.24.24,0,0,1-.047,0q-.5-.094-1-.182a.254.254,0,0,1,.088-.5q.5.088,1,.183a.254.254,0,0,1-.047.5Zm-3.505-.592a.25.25,0,0,1-.039,0q-.5-.076-1-.149a.254.254,0,1,1,.073-.5q.5.073,1.007.149a.254.254,0,0,1-.038.5Zm-3.521-.5-.034,0-1.007-.134a.254.254,0,1,1,.067-.5l1.008.134a.254.254,0,0,1-.034.505Zm-3.525-.468-.034,0-1.008-.137a.254.254,0,0,1,.068-.5l1.007.137a.254.254,0,0,1-.033.505Zm-3.522-.5a.241.241,0,0,1-.039,0q-.5-.076-1.007-.158a.254.254,0,0,1,.08-.5q.5.08,1,.158a.254.254,0,0,1-.037.5Z" transform="translate(-761.688 -464.463)" fill="#0dc8de" opacity="0.6"/>
        </g>
      </g>
    </g>
    <path id="Path_1582" data-name="Path 1582" d="M829.762,333.946l.56-6.109,5.1-2.765L827.7,310.738,805.96,322.09l7.6,14.266,4.7-2.321,9.257,4.854Z" transform="translate(827.987 1441.885)" fill="#fff"/>
    <g id="Group_2827" data-name="Group 2827" transform="translate(1634.026 1752.533)">
      <path id="Path_1589" data-name="Path 1589" d="M830.359,327.795l5.082-2.52-7.659-14.668-21.705,11.722,7.524,13.986,10.224-5.231" transform="translate(-806.077 -310.606)" fill="none" stroke="#6d81f5" stroke-linecap="round" stroke-linejoin="round" stroke-width="1"/>
      <path id="Path_1590" data-name="Path 1590" d="M806.077,322.328l14.682,1.473,7.023-13.2" transform="translate(-806.077 -310.606)" fill="none" stroke="#6d81f5" stroke-linecap="round" stroke-linejoin="round" stroke-width="1"/>
    </g>
    <path id="Path_1611" data-name="Path 1611" d="M837.864,336.656l.879-8.2-3.289-6.1s.472-4.315-.473-4.29-.894,10.519-.894,10.519-2.783,1.964-1.756,6.272" transform="translate(819.676 1439.557)" fill="none" stroke="#122070" stroke-linecap="round" stroke-linejoin="round" stroke-width="1"/>
    <line id="Line_13" data-name="Line 13" x2="8.762" y2="5.071" transform="translate(1646.761 1775.79)" fill="none" stroke="#122070" stroke-linecap="round" stroke-linejoin="round" stroke-width="1"/>
    <g id="Group_2838" data-name="Group 2838" transform="translate(1429.592 1779.829)">
      <path id="Path_1641" data-name="Path 1641" d="M1126.564,462.451l-9.848-19.215-28.476,15.444,9.894,18.141Z" transform="translate(-1088.241 -438.202)" fill="#fff"/>
      <g id="Group_2837" data-name="Group 2837" transform="translate(0.116 10.038)">
        <path id="Path_1642" data-name="Path 1642" d="M1114.8,455.907l-5.7,14.25-20.566-3.936,19.1,1.789,6.41-12.294Z" transform="translate(-1088.529 -455.717)" fill="#c6ff00"/>
        <path id="Path_1643" data-name="Path 1643" d="M1114.8,455.907l-5.7,14.25-20.566-3.936,19.1,1.789,6.41-12.294Z" transform="translate(-1088.529 -455.717)" fill="#fff" opacity="0.5"/>
      </g>
      <path id="Path_1644" data-name="Path 1644" d="M1088.489,458.8l9.794,18.2,28.43-14.37-9.97-19.093Z" transform="translate(-1088.39 -438.384)" fill="none" stroke="#f45b0f" stroke-linecap="round" stroke-linejoin="round" stroke-width="1"/>
      <path id="Path_1645" data-name="Path 1645" d="M1088.489,458.8l19.112,1.917,9.142-17.176" transform="translate(-1088.39 -438.384)" fill="none" stroke="#f45b0f" stroke-linecap="round" stroke-linejoin="round" stroke-width="1"/>
      <circle id="Ellipse_104" data-name="Ellipse 104" cx="4.202" cy="4.202" r="4.202" transform="translate(21.412 5.942) rotate(-45)" fill="#c6ff00"/>
      <circle id="Ellipse_105" data-name="Ellipse 105" cx="4.202" cy="4.202" r="4.202" transform="translate(21.412 5.942) rotate(-45)" opacity="0.3"/>
      <circle id="Ellipse_106" data-name="Ellipse 106" cx="4.202" cy="4.202" r="4.202" transform="translate(23.153 1.87)" fill="none" stroke="#f45b0f" stroke-linecap="round" stroke-linejoin="round" stroke-width="1"/>
      <circle id="Ellipse_107" data-name="Ellipse 107" cx="4.202" cy="4.202" r="4.202" transform="translate(23.153 0.697)" fill="#ffd726"/>
      <circle id="Ellipse_108" data-name="Ellipse 108" cx="4.202" cy="4.202" r="4.202" transform="translate(23.153 0.697)" fill="none" stroke="#f45b0f" stroke-linecap="round" stroke-linejoin="round" stroke-width="1"/>
    </g>
    <rect id="Rectangle_582" data-name="Rectangle 582" width="22.522" height="13.604" rx="1" transform="translate(1504.045 1757.854)" fill="none" stroke="#f45b0f" stroke-linecap="round" stroke-linejoin="round" stroke-width="1"/>
    <g id="Group_2839" data-name="Group 2839" transform="translate(1507.822 1761.392)">
      <rect id="Rectangle_583" data-name="Rectangle 583" width="15.072" height="0.659" transform="translate(0 -0.408)" fill="#f45b0f"/>
      <rect id="Rectangle_585" data-name="Rectangle 585" width="15.072" height="0.659" transform="translate(0 1.991)" fill="#f45b0f"/>
      <rect id="Rectangle_586" data-name="Rectangle 586" width="15.072" height="0.659" transform="translate(0 4.39)" fill="#f45b0f"/>
      <rect id="Rectangle_587" data-name="Rectangle 587" width="15.072" height="0.659" transform="translate(0 6.789)" fill="#f45b0f"/>
    </g>
    <g id="Group_2841" data-name="Group 2841" transform="translate(1407.738 1730.279)">
      <path id="Path_1646" data-name="Path 1646" d="M1126.81,408.436a39.487,39.487,0,0,0-8.79,6.382c-6.007,5.993-8.976,14.271-13.25,21.591a66.552,66.552,0,0,1-17.1,19.331c-7.107,5.412-15.529,9.43-24.452,10.073s-18.344-2.436-24.162-9.205-7.253-17.36-2.34-24.806a18.812,18.812,0,0,1,19.27-7.78,36.746,36.746,0,0,1,8.022,3.161l4,1.95" transform="translate(-1033.736 -367.805)" fill="none" stroke="#ff9898" stroke-linecap="round" stroke-linejoin="round" stroke-width="1" stroke-dasharray="2 5"/>
      <path id="Path_1647" data-name="Path 1647" d="M1296.33,308.92a17.21,17.21,0,0,1,12.99-.964,12.809,12.809,0,0,1,8.394,9.588,14.483,14.483,0,0,1-3.1,10.783,28.914,28.914,0,0,1-6.241,5.883" transform="translate(-1191.043 -307.098)" fill="none" stroke="#ff9898" stroke-linecap="round" stroke-linejoin="round" stroke-width="1" stroke-dasharray="2 5"/>
    </g>
    <path id="Path_1583" data-name="Path 1583" d="M940.614,249.272s-7.062,16.478-7.7,22.042-.321,8.346,2.354,10.272,7.542,2.022,7.542,2.022l-.464,2.934a4.1,4.1,0,0,0-3.439,2.106,7.316,7.316,0,0,0-1.475,3.718s1.873,7.374,3.387,7.5,3.119-5.044,3.119-5.044,1.348,7.382,2.653,7.132,13.289-8.275,13.289-8.275,1.073-5.567-1.55-8.454c0,0-.7-5.518.052-8.086,0,0,5.177.653,5.457-4.645.248-4.721-2.248-6.741-3.745-4.815l-3.531-8.881,1.391-6.313Z" transform="translate(787.721 1461.424)" fill="#fff"/>
    <g id="Group_2826" data-name="Group 2826" transform="translate(1720.229 1710.696)">
      <path id="Path_1584" data-name="Path 1584" d="M943.1,250.922l.548.958s-8.621,14.232-8.211,23.538,13.685,6.843,13.685,6.843-.821,11.632-5.748,10.948l-1.232-2.874.353-6.493s-5.143.472-8.29-2.675-1.642-9.853,1.231-19.022,5.121-12.871,5.121-12.871Z" transform="translate(-932.452 -249.272)" fill="#ffcbcb"/>
      <path id="Path_1585" data-name="Path 1585" d="M943.1,250.922l.548.958s-8.621,14.232-8.211,23.538,13.685,6.843,13.685,6.843-.821,11.632-5.748,10.948l-1.232-2.874.353-6.493s-5.143.472-8.29-2.675-1.642-9.853,1.231-19.022,5.121-12.871,5.121-12.871Z" transform="translate(-932.452 -249.272)" fill="#fff" opacity="0.6"/>
    </g>
    <path id="Path_1586" data-name="Path 1586" d="M954.659,334.928a30.519,30.519,0,0,1-2.865,8.629,38.269,38.269,0,0,1-5.341,7.981l1.194,11.241,2.858,16.746c-.007.007-.02.014-.027.02a1.594,1.594,0,0,0-.13.1c-.17.13-.477.355-.914.662H907.1c-1.112-2.578-2.346-5.5-3.506-8.37-2.115-5.245-3.984-10.32-4.406-12.865a6.721,6.721,0,0,1-.089-.873l-7.183-7.176-23.7,12.906-30.559-25.859.048-.089,3.1-6.207.014-.034,30.4,14.509,6.3-8.7.089-.286.007-.034,1.8-5.894.021-.061,1.125-3.683,1.439-4.713,9-4.29.027-.014,16.221-7.735.02.082c.082.28.334,1.187.7,2.285.082.266.164.532.259.8.061.2.13.4.2.587a21.267,21.267,0,0,0,1.091,2.572c.068.13.143.252.211.362a4.011,4.011,0,0,0,.321.457c.007.014.02.02.027.034a.734.734,0,0,0,.553.321c.764-.061,1.685-1.726,2.333-3.124a1.067,1.067,0,0,1,.054-.13c.368-.825.641-1.535.716-1.733.014-.034.02-.055.02-.055a.75.75,0,0,1,.014.082c.1.648.866,5.116,1.965,6.582.034.048.075.1.109.143a.829.829,0,0,0,.559.321h.014c.532,0,2.2-1.016,4.2-2.367.007,0,.013-.007.02-.014,3.69-2.5,8.472-6.146,9.174-6.678.061-.055.089-.075.089-.075a13.4,13.4,0,0,0,0-3.929l.116.041,19.747,7.633c0,.007,0,.007.007.007l.573.218s2.872,3.52,4.359,12.21A22.326,22.326,0,0,1,954.659,334.928Z" transform="translate(817.911 1442.962)" fill="#ff9898"/>
    <path id="Path_1587" data-name="Path 1587" d="M902.288,330.076l1.828-10.325-21.885-5.879-3.779,15.845,8.719,2.729,3.945,7.989,5.985,4.114,6.57-6.126.559-4.891Z" transform="translate(804.942 1440.888)" fill="#fff"/>
    <path id="Path_1588" data-name="Path 1588" d="M872.956,327.813" transform="translate(806.689 1436.457)" fill="none" stroke="#263238" stroke-linecap="round" stroke-linejoin="round" stroke-width="1"/>
    <g id="Group_2828" data-name="Group 2828" transform="translate(1683.395 1754.666)">
      <path id="Path_1591" data-name="Path 1591" d="M898.818,335.559l2.337.675,3.035-16.772-21.954-5.73-3.784,15.94,8.428,2.436" transform="translate(-878.452 -313.733)" fill="none" stroke="#6d81f5" stroke-linecap="round" stroke-linejoin="round" stroke-width="1"/>
      <path id="Path_1592" data-name="Path 1592" d="M884.168,313.733l8.716,10.895,13.123-5.165" transform="translate(-880.269 -313.733)" fill="none" stroke="#6d81f5" stroke-linecap="round" stroke-linejoin="round" stroke-width="1"/>
    </g>
    <path id="Path_1593" data-name="Path 1593" d="M941.427,246s-8.6,19.469-9.174,27.377c-.575,7.861,6.8,9.079,6.889,9.093a16.033,16.033,0,0,0,8.808-.892c2.2-.947,3.962-2.7,5.8-4.206" transform="translate(787.85 1462.463)" fill="none" stroke="#122070" stroke-linecap="round" stroke-linejoin="round" stroke-width="1"/>
    <path id="Path_1594" data-name="Path 1594" d="M941.836,273.3l-3.472-1.929,4.051-8.68" transform="translate(785.897 1457.159)" fill="none" stroke="#263238" stroke-linecap="round" stroke-linejoin="round" stroke-width="1"/>
    <path id="Path_1595" data-name="Path 1595" d="M949.729,267.727c-.254.769-.127,1.5.283,1.638s.949-.378,1.2-1.147.128-1.5-.282-1.638S949.983,266.958,949.729,267.727Z" transform="translate(782.326 1455.929)" fill="#263238"/>
    <path id="Path_1596" data-name="Path 1596" d="M940,264.078c-.254.769-.128,1.5.282,1.638s.949-.378,1.2-1.147.128-1.5-.282-1.638S940.251,263.309,940,264.078Z" transform="translate(785.42 1457.089)" fill="#263238"/>
    <path id="Path_1597" data-name="Path 1597" d="M948.149,280.778a5.528,5.528,0,0,1-4.979,1.867" transform="translate(784.37 1451.409)" fill="none" stroke="#263238" stroke-linecap="round" stroke-linejoin="round" stroke-width="1"/>
    <path id="Path_1598" data-name="Path 1598" d="M950.295,261.99a2.078,2.078,0,0,1,2.469.445,6.07,6.07,0,0,1,1.281,2.36" transform="translate(782.104 1457.458)" fill="none" stroke="#263238" stroke-linecap="round" stroke-linejoin="round" stroke-width="2"/>
    <path id="Path_1599" data-name="Path 1599" d="M943.421,260.026a1.551,1.551,0,0,0-2.789-.308" transform="translate(785.176 1458.338)" fill="none" stroke="#263238" stroke-linecap="round" stroke-linejoin="round" stroke-width="2"/>
    <path id="Path_1600" data-name="Path 1600" d="M969.627,280.58s2.3-3.761,4.7-2.925,1.254,4.282.1,6.476-4.073,2.3-5.745,1.358" transform="translate(776.258 1452.44)" fill="none" stroke="#122070" stroke-linecap="round" stroke-linejoin="round" stroke-width="1"/>
    <path id="Path_1601" data-name="Path 1601" d="M966.153,268.938s2.282-3.851-.143-5.135-5.41,3.061-5.41,3.061c-.075.056-.308,0-.615-.111a2.2,2.2,0,0,1-1.253-2.924c.1-.241.187-.48.261-.7a6.285,6.285,0,0,0,.245-3.076c-.4-2.085-1.881-3.785-1.643-6.017a14.376,14.376,0,0,1,1.548-4.992c-12.405,2.481-19.848-4.548-18.193-10.337s5.582-.621,14.265-3.928,14.914,10.8,14.914,10.8c8.683,6,.385,14.424.385,14.424l-4.432,9.181Z" transform="translate(785.148 1466.192)" fill="#122070"/>
    <path id="Path_1602" data-name="Path 1602" d="M997.116,371.67c.32,10.948,4.079,28.3,4.079,28.3s-.021.014-.027.02a1.6,1.6,0,0,0-.13.1c-.314.225-.628.443-.941.662" transform="translate(767.221 1422.515)" fill="none" stroke="#122070" stroke-linecap="round" stroke-linejoin="round" stroke-width="1"/>
    <path id="Path_1603" data-name="Path 1603" d="M935.478,404c-1.1-2.606-2.183-5.416-3.247-8.37-1.555-4.325-3.063-8.963-4.5-13.738" transform="translate(789.276 1419.267)" fill="none" stroke="#122070" stroke-linecap="round" stroke-linejoin="round" stroke-width="1"/>
    <path id="Path_1604" data-name="Path 1604" d="M996.12,376.73" transform="translate(767.538 1420.907)" fill="none" stroke="#263238" stroke-linecap="round" stroke-linejoin="round" stroke-width="1"/>
    <path id="Path_1605" data-name="Path 1605" d="M972.88,307.352s17.642,6.269,20.328,7.935" transform="translate(774.925 1442.961)" fill="none" stroke="#f66161" stroke-linecap="round" stroke-linejoin="round" stroke-width="1"/>
    <path id="Path_1606" data-name="Path 1606" d="M948.758,310.1c-1.382-1.016-2.164-3.619-1.849-5.54l.433-4.5" transform="translate(783.203 1445.278)" fill="none" stroke="#f66161" stroke-linecap="round" stroke-linejoin="round" stroke-width="1"/>
    <path id="Path_1607" data-name="Path 1607" d="M970.216,289.836a21.469,21.469,0,0,0-.158,8.282" transform="translate(775.914 1448.529)" fill="none" stroke="#f66161" stroke-linecap="round" stroke-linejoin="round" stroke-width="1"/>
    <path id="Path_1608" data-name="Path 1608" d="M944.008,362l-31.357-22.048-6.859,6.125s27.927,31.112,38.951,36.012c0,0,21.995-23.709,29.1-35.468,0,0,7.18-11.747-1.841-27.642" transform="translate(796.251 1439.265)" fill="none" stroke="#f66161" stroke-linecap="round" stroke-linejoin="round" stroke-width="1"/>
    <line id="Line_10" data-name="Line 10" y1="22.332" x2="16.84" transform="translate(1736.491 1776.347)" fill="none" stroke="#f66161" stroke-linecap="round" stroke-linejoin="round" stroke-width="1"/>
    <line id="Line_11" data-name="Line 11" x2="10.534" y2="0.49" transform="translate(1737.014 1799.034)" fill="none" stroke="#f66161" stroke-linecap="round" stroke-linejoin="round" stroke-width="1"/>
    <path id="Path_1609" data-name="Path 1609" d="M983.155,247.72s1.366-5.466-2.05-9.681" transform="translate(772.311 1464.995)" fill="none" stroke="#122070" stroke-linecap="round" stroke-miterlimit="10" stroke-width="1"/>
    <path id="Path_1610" data-name="Path 1610" d="M877.49,348.846l-6.434,8.937-30.6-14.873-2.86,6.292,30.6,26.028,23.6-13.014" transform="translate(817.932 1431.658)" fill="none" stroke="#f66161" stroke-linecap="round" stroke-linejoin="round" stroke-width="1"/>
    <line id="Line_12" data-name="Line 12" y1="8.09" x2="16.246" transform="translate(1708.901 1753.79)" fill="none" stroke="#122070" stroke-linecap="round" stroke-linejoin="round" stroke-width="1"/>
    <path id="Path_1612" data-name="Path 1612" d="M913.619,337.935l1.653,2.895-.319,5.152" transform="translate(793.763 1433.239)" fill="none" stroke="#122070" stroke-linecap="round" stroke-linejoin="round" stroke-width="1"/>
    <path id="Path_1613" data-name="Path 1613" d="M903.431,342.115c0-.447-9.322-10.5-9.322-10.5l-1.067.842,3.825,7.481-3.207-5.628-.9,1.067.839,4.114L892.48,336.5l-1.516.786,4.13,8.79,5.881,3.8" transform="translate(800.965 1435.249)" fill="none" stroke="#122070" stroke-linecap="round" stroke-linejoin="round" stroke-width="1"/>
    <g id="Group_2829" data-name="Group 2829" transform="translate(1719.118 1829.363)">
      <path id="Path_1614" data-name="Path 1614" d="M1006.65,423.242" transform="translate(-954.928 -423.242)" fill="none" stroke="#263238" stroke-linecap="round" stroke-linejoin="round" stroke-width="1"/>
      <path id="Path_1615" data-name="Path 1615" d="M995.625,429.843" transform="translate(-951.423 -425.34)" fill="none" stroke="#263238" stroke-linecap="round" stroke-linejoin="round" stroke-width="1"/>
      <path id="Path_1616" data-name="Path 1616" d="M984.752,434.98" transform="translate(-947.967 -426.973)" fill="none" stroke="#263238" stroke-linecap="round" stroke-linejoin="round" stroke-width="1"/>
      <path id="Path_1617" data-name="Path 1617" d="M930.824,432.422" transform="translate(-930.824 -426.16)" fill="none" stroke="#263238" stroke-linecap="round" stroke-linejoin="round" stroke-width="1"/>
    </g>
    <path id="Path_1618" data-name="Path 1618" d="M963.735,301.977s-7.307,5.778-14.086,8.385c0,0,.652,7.822,2.347,8.344.628.193,1.584-.456,2.094-.733a40.228,40.228,0,0,0,3.492-2.2c2.318-1.58,4.571-3.258,6.795-4.968.434-.333,1.087-.651,1.119-1.233.148-2.739.306-5.445-1.732-7.567Z" transform="translate(782.31 1444.67)" fill="none" stroke="#f66161" stroke-linecap="round" stroke-linejoin="round" stroke-width="1"/>
    <path id="Path_1619" data-name="Path 1619" d="M946.441,311.052s-1.863,6.479-3.425,6.256-3.458-7.919-3.458-7.919,1.785-6.136,5.131-5.132" transform="translate(785.518 1443.98)" fill="none" stroke="#f66161" stroke-linecap="round" stroke-linejoin="round" stroke-width="1"/>
    <path id="Path_1620" data-name="Path 1620" d="M886.808,364.38a30.409,30.409,0,0,1,.032,6.986" transform="translate(802.286 1424.833)" fill="none" stroke="#f66161" stroke-linecap="round" stroke-linejoin="round" stroke-width="1"/>
    <line id="Line_14" data-name="Line 14" x2="2.598" y2="8.456" transform="translate(1711.718 1774.493)" fill="none" stroke="#f66161" stroke-linecap="round" stroke-linejoin="round" stroke-width="1"/>
    <path id="Path_1621" data-name="Path 1621" d="M977.69,335.083a23.116,23.116,0,0,0-2.628,12.3" transform="translate(774.248 1434.146)" fill="none" stroke="#f66161" stroke-linecap="round" stroke-linejoin="round" stroke-width="1"/>
    <path id="Path_1622" data-name="Path 1622" d="M972.29,342.165a27.245,27.245,0,0,0,.254,7.466" transform="translate(775.159 1431.895)" fill="none" stroke="#f66161" stroke-linecap="round" stroke-linejoin="round" stroke-width="1"/>
    <path id="Path_1623" data-name="Path 1623" d="M888.4,365.8a11.8,11.8,0,0,1,1.352,4.314" transform="translate(801.78 1424.38)" fill="none" stroke="#f66161" stroke-linecap="round" stroke-linejoin="round" stroke-width="1"/>
    <path id="Path_1624" data-name="Path 1624" d="M944.021,242.18a4.624,4.624,0,0,0,1.877,2.75,10.707,10.707,0,0,0,3.069,1.445,32.2,32.2,0,0,0,9.875,1.593,8.043,8.043,0,0,1,2.185.184,2.333,2.333,0,0,1,1.617,1.364" transform="translate(784.099 1463.678)" fill="none" stroke="#fff" stroke-linecap="round" stroke-linejoin="round" stroke-width="0.5"/>
    <path id="Path_1625" data-name="Path 1625" d="M947.722,238.3c.443,1.857,2.363,3.04,4.252,3.31a20.39,20.39,0,0,0,5.688-.428,9.162,9.162,0,0,1,5.6.555c1.683.9,2.808,3.08,1.954,4.788" transform="translate(782.923 1464.913)" fill="none" stroke="#fff" stroke-linecap="round" stroke-linejoin="round" stroke-width="0.5"/>
    <path id="Path_1626" data-name="Path 1626" d="M915.5,347.742" transform="translate(793.165 1430.122)" fill="none" stroke="#263238" stroke-linecap="round" stroke-linejoin="round" stroke-width="1"/>
    <g id="Table" transform="translate(1666.427 1798.043)">
      <path id="Path_1627" data-name="Path 1627" d="M919.976,414.3h73.317" transform="translate(-876.051 -388.925)" fill="none" stroke="#122070" stroke-linecap="round" stroke-linejoin="round" stroke-width="1"/>
      <line id="Line_15" data-name="Line 15" x2="22.139" transform="translate(16.101 12.386)" fill="none" stroke="#263238" stroke-linecap="round" stroke-linejoin="round" stroke-width="1"/>
      <g id="Device--inject-47" transform="translate(0)">
        <path id="Path_1628" data-name="Path 1628" d="M919.2,428.224H878.061l-15.7,8.481h43.1Z" transform="translate(-854.521 -407.115)" fill="none" stroke="#122476" stroke-linecap="round" stroke-linejoin="round" stroke-width="1"/>
        <line id="Line_16" data-name="Line 16" x2="30.376" transform="translate(26.23 23.324)" fill="none" stroke="#122476" stroke-linecap="round" stroke-linejoin="round" stroke-width="1"/>
        <line id="Line_17" data-name="Line 17" x2="29.528" transform="translate(24.015 24.906)" fill="none" stroke="#122476" stroke-linecap="round" stroke-linejoin="round" stroke-width="1"/>
        <line id="Line_18" data-name="Line 18" x2="28.667" transform="translate(21.799 26.489)" fill="none" stroke="#263238" stroke-linecap="round" stroke-linejoin="round" stroke-width="1"/>
        <line id="Line_19" data-name="Line 19" x1="8.698" y2="4.272" transform="translate(48.067 23.324)" fill="none" stroke="#122476" stroke-linecap="round" stroke-linejoin="round" stroke-width="1"/>
        <line id="Line_20" data-name="Line 20" x1="8.698" y2="4.272" transform="translate(43.319 23.324)" fill="none" stroke="#122476" stroke-linecap="round" stroke-linejoin="round" stroke-width="1"/>
        <path id="Path_1629" data-name="Path 1629" d="M850.6,394.521h43.109l7.358,29.59h-43.1Z" transform="translate(-850.127 -394.521)" fill="#263238"/>
        <rect id="Rectangle_580" data-name="Rectangle 580" width="43.489" height="2.104" transform="translate(7.452 29.585)" fill="none" stroke="#122070" stroke-linecap="round" stroke-linejoin="round" stroke-width="1"/>
        <path id="Path_1630" data-name="Path 1630" d="M849.844,394.521h43.108l7.358,29.59H857.2Z" transform="translate(-849.844 -394.521)" fill="#fff" stroke="#122070" stroke-linecap="round" stroke-linejoin="round" stroke-width="1"/>
        <path id="Path_1631" data-name="Path 1631" d="M931.179,436.674l14.037-8.533-.012,1.6-13.868,9.308Z" transform="translate(-880.238 -407.085)" fill="#122070"/>
        <path id="Path_1632" data-name="Path 1632" d="M890.387,415.55a2.3,2.3,0,1,1-2.853-1.883A2.421,2.421,0,0,1,890.387,415.55Z" transform="translate(-863.282 -401.658)" fill="none" stroke="#122070" stroke-linecap="round" stroke-linejoin="round" stroke-width="1"/>
      </g>
    </g>
  </g>
</svg>