<svg width="12" height="15" viewBox="0 0 12 15" fill="none" xmlns="http://www.w3.org/2000/svg">
<path d="M2 5.33366V4.66699C2 3.60613 2.42143 2.58871 3.17157 1.83857C3.92172 1.08842 4.93913 0.666992 6 0.666992C7.06087 0.666992 8.07828 1.08842 8.82843 1.83857C9.57857 2.58871 10 3.60613 10 4.66699V5.33366H11.3333C11.5101 5.33366 11.6797 5.4039 11.8047 5.52892C11.9298 5.65395 12 5.82351 12 6.00033V14.0003C12 14.1771 11.9298 14.3467 11.8047 14.4717C11.6797 14.5968 11.5101 14.667 11.3333 14.667H0.666667C0.489856 14.667 0.320286 14.5968 0.195262 14.4717C0.0702379 14.3467 0 14.1771 0 14.0003V6.00033C0 5.82351 0.0702379 5.65395 0.195262 5.52892C0.320286 5.4039 0.489856 5.33366 0.666667 5.33366H2ZM10.6667 6.66699H1.33333V13.3337H10.6667V6.66699ZM5.33333 10.4883C5.07914 10.3416 4.88048 10.115 4.76816 9.84387C4.65584 9.5727 4.63613 9.27204 4.7121 8.98853C4.78807 8.70502 4.95546 8.4545 5.18832 8.27582C5.42118 8.09714 5.70649 8.00029 6 8.00029C6.29351 8.00029 6.57882 8.09714 6.81168 8.27582C7.04454 8.4545 7.21193 8.70502 7.2879 8.98853C7.36387 9.27204 7.34416 9.5727 7.23184 9.84387C7.11952 10.115 6.92086 10.3416 6.66667 10.4883V12.0003H5.33333V10.4883ZM3.33333 5.33366H8.66667V4.66699C8.66667 3.95975 8.38572 3.28147 7.88562 2.78137C7.38552 2.28128 6.70724 2.00033 6 2.00033C5.29276 2.00033 4.61448 2.28128 4.11438 2.78137C3.61428 3.28147 3.33333 3.95975 3.33333 4.66699V5.33366Z" fill="#B2BEC3"/>
</svg>
