<svg width="12" height="14" viewBox="0 0 12 14" fill="none" xmlns="http://www.w3.org/2000/svg">
<path d="M5.99954 10.333C8.44087 10.333 10.5762 11.383 11.7375 12.9497L10.5095 13.5303C9.56421 12.4103 7.89754 11.6663 5.99954 11.6663C4.10154 11.6663 2.43487 12.4103 1.48954 13.5303L0.262207 12.949C1.42354 11.3823 3.55821 10.333 5.99954 10.333ZM5.99954 0.333008C6.8836 0.333008 7.73144 0.684197 8.35656 1.30932C8.98168 1.93444 9.33287 2.78229 9.33287 3.66634V5.66634C9.33282 6.52532 9.00118 7.35112 8.4071 7.97153C7.81302 8.59194 7.00237 8.95906 6.14421 8.99634L5.99954 8.99967C5.11549 8.99967 4.26764 8.64849 3.64252 8.02336C3.0174 7.39824 2.66621 6.5504 2.66621 5.66634V3.66634C2.66626 2.80737 2.9979 1.98157 3.59198 1.36116C4.18606 0.740746 4.99671 0.373621 5.85487 0.336341L5.99954 0.333008ZM5.99954 1.66634C5.4894 1.66631 4.99853 1.86122 4.62737 2.2112C4.2562 2.56117 4.0328 3.03975 4.00287 3.54901L3.99954 3.66634V5.66634C3.99904 6.18694 4.20155 6.68723 4.56405 7.06089C4.92656 7.43455 5.42047 7.65213 5.94085 7.66741C6.46123 7.68268 6.96706 7.49445 7.35085 7.1427C7.73465 6.79095 7.96617 6.30341 7.99621 5.78367L7.99954 5.66634V3.66634C7.99954 3.13591 7.78883 2.6272 7.41375 2.25213C7.03868 1.87705 6.52997 1.66634 5.99954 1.66634Z" fill="#B2BEC3"/>
</svg>
