<svg xmlns="http://www.w3.org/2000/svg" xmlns:xlink="http://www.w3.org/1999/xlink" width="455.494" height="163.436" viewBox="0 0 455.494 163.436">
  <defs>
    <linearGradient id="linear-gradient" x1="0.012" y1="0.969" x2="0.991" y2="0.055" gradientUnits="objectBoundingBox">
      <stop offset="0" stop-color="#9e45fc"/>
      <stop offset="1" stop-color="#6d32ab"/>
    </linearGradient>
    <linearGradient id="linear-gradient-2" x1="0.5" y1="-0.487" x2="0.5" y2="0.893" gradientUnits="objectBoundingBox">
      <stop offset="0" stop-color="#4656af"/>
      <stop offset="1" stop-color="#191753"/>
    </linearGradient>
    <linearGradient id="linear-gradient-4" x1="1.752" y1="0.86" x2="0.494" y2="0.516" gradientUnits="objectBoundingBox">
      <stop offset="0" stop-color="#eeebe1"/>
      <stop offset="1" stop-color="#d1a982"/>
    </linearGradient>
    <linearGradient id="linear-gradient-5" x1="2.434" y1="1.756" x2="0.064" y2="0.171" xlink:href="#linear-gradient-4"/>
    <linearGradient id="linear-gradient-6" x1="10.576" y1="6.473" x2="-0.255" y2="0.052" xlink:href="#linear-gradient-4"/>
    <linearGradient id="linear-gradient-7" x1="0.582" y1="-0.541" x2="0.412" y2="1.74" xlink:href="#linear-gradient-2"/>
    <linearGradient id="linear-gradient-8" x1="0.577" y1="-0.452" x2="0.394" y2="1.91" xlink:href="#linear-gradient-2"/>
    <linearGradient id="linear-gradient-10" x1="0.5" y1="-0.487" x2="0.5" y2="0.893" gradientUnits="objectBoundingBox">
      <stop offset="0" stop-color="#bcc7fc"/>
      <stop offset="1" stop-color="#574fd3"/>
    </linearGradient>
    <linearGradient id="linear-gradient-11" x1="0.5" y1="-0.487" x2="0.5" y2="0.893" gradientUnits="objectBoundingBox">
      <stop offset="0" stop-color="#d7ddfd"/>
      <stop offset="1" stop-color="#8e83ed"/>
    </linearGradient>
  </defs>
  <g id="Group_2913" data-name="Group 2913" transform="translate(-1387.506 -453)">
    <rect id="Rectangle_512" data-name="Rectangle 512" width="455" height="163" rx="15" transform="translate(1388 453)" fill="url(#linear-gradient)"/>
    <g id="Group_2769" data-name="Group 2769" transform="translate(1573.704 552.662)">
      <rect id="Rectangle_513" data-name="Rectangle 513" width="4.298" height="32.315" transform="translate(20.489 0)" fill="#e380a1"/>
      <rect id="Rectangle_514" data-name="Rectangle 514" width="4.314" height="14.202" transform="translate(0 18.113)" fill="#191753"/>
      <rect id="Rectangle_515" data-name="Rectangle 515" width="4.335" height="21.717" transform="translate(10.46 10.598)" fill="#efc343"/>
    </g>
    <g id="Group_2772" data-name="Group 2772" transform="translate(1441.851 500.41)">
      <path id="Path_1450" data-name="Path 1450" d="M-412.438,234.026s15.787,18.681,16.812,19.56-6.738,15.38-6.738,15.38-17.87-1.757-16.406-16.845S-412.438,234.026-412.438,234.026Z" transform="translate(473 -195.641)" fill="url(#linear-gradient-2)"/>
      <path id="Path_1451" data-name="Path 1451" d="M-505.426,231.447s8.885-5.057,28.225-6.835,25.883,3.64,27.523,5.212-5.312,45.771-4.765,57.388a126.962,126.962,0,0,0,2.187,19.136H-500.5s2.05-28.977,2.6-40.185S-505.426,243.611-505.426,231.447Z" transform="translate(510.24 -191.439)" fill="url(#linear-gradient-2)"/>
      <path id="Path_1452" data-name="Path 1452" d="M-453.418,219.666c0,2.058-4.16,3.991-9.292,4.318S-472,222.906-472,220.848s4.16-3.991,9.292-4.318S-453.418,217.607-453.418,219.666Z" transform="translate(495.862 -188.095)" fill="#191753"/>
      <g id="Group_2771" data-name="Group 2771" transform="translate(25.244 15.609)">
        <path id="Path_1453" data-name="Path 1453" d="M-467.455,194.057s.82,12.643-2.119,18.452l8.269,4.237,7.517-5.4,1.23-13.463Z" transform="translate(469.574 -194.057)" fill="url(#linear-gradient-4)"/>
        <path id="Path_1454" data-name="Path 1454" d="M-452.557,197.884l-14.9-3.827s.82,12.643-2.119,18.452l1.925.986c2.83-3.217,1.826-9.569,3.047-8.08,5.166,6.3,10.674,7.469,11.133,2.443l.644-7.049Z" transform="translate(469.574 -194.057)" fill="#c39a77"/>
      </g>
      <path id="Path_1455" data-name="Path 1455" d="M-448.282,184.7c-.474,5.442-2.041,12.482-6.762,12.5-5.4.026-10.827-7.673-10.26-14.092s4.837-11.268,9.538-10.829S-447.723,178.285-448.282,184.7Z" transform="translate(492.999 -169.071)" fill="url(#linear-gradient-5)"/>
      <path id="Path_1456" data-name="Path 1456" d="M-466.012,194.15c.243,1.631-.345,3.076-1.311,3.228s-1.947-1.047-2.189-2.678.345-3.076,1.311-3.228S-466.254,192.52-466.012,194.15Z" transform="translate(494.815 -177.33)" fill="url(#linear-gradient-6)"/>
      <path id="Path_1457" data-name="Path 1457" d="M-467.879,181.008c.661.307.995,1.427,1.25,2.5.113.477,2.115-3.957,2.176-3.957.043,0-.122-3.114.4-3.511s.872-.32,2.5.7a10.234,10.234,0,0,0,6.32,1.893c3.381-.06,4.161-2.055,4.161-2.055a10.9,10.9,0,0,1,.505,2.016s4.6-4.477,2.077-8.467c-2.9-4.593-10.208-.38-10.208-.38s2.056-3.307-.523-3.074c-2.406.218-3.666,3.571-3.666,3.571s-1.239-1.969-1.934-1.476.06,2.4.06,2.4-9.03-1.9-4.248,10.156C-469.008,181.331-468.736,180.61-467.879,181.008Z" transform="translate(495.176 -166.664)" fill="#191753"/>
      <path id="Path_1458" data-name="Path 1458" d="M-470.464,231.413a3.44,3.44,0,0,0,1.041-2.255c.174-1.561.868-2.879,1.423-2.879a20.079,20.079,0,0,1,2.9.8s-5.864-2.916-8.269-4.237-.633-3.3,1.279-3.824l.091-.936s-2.882.608-3.333,2.447-3.062,2.49-3.062,3.393C-478.392,226.29-474.385,230.3-470.464,231.413Z" transform="translate(498.611 -188.784)" fill="url(#linear-gradient-7)"/>
      <path id="Path_1459" data-name="Path 1459" d="M-442.954,221.562c-.269-.862-1.68-.789-2.4-2.54-.252-.613-1.345-1.066-1.872-1.3-.018.191-.036.707-.054.9.873.651,1.221,1.78-.266,2.9-2.34,1.769-7.517,5.4-7.517,5.4a20.086,20.086,0,0,1,2.751-1.227c.549-.083,1.431,1.118,1.835,2.636a3.442,3.442,0,0,0,1.365,2.075C-445.4,228.729-442.295,223.675-442.954,221.562Z" transform="translate(488.576 -188.627)" fill="url(#linear-gradient-8)"/>
      <path id="Path_1460" data-name="Path 1460" d="M-457.669,195.97a6.806,6.806,0,0,0-1.859.928c-2.368-1.019-2.854-10.234-2.854-10.234s-3.476-.685-2.949,1.211a43.857,43.857,0,0,1,.62,6.967c2.162,7.73,6.947,11.339,9.973,11.38,2.515.033,5.221-4.644,5.555-7.538S-453.16,194.69-457.669,195.97Z" transform="translate(493.017 -175.216)" fill="#191753"/>
      <path id="Path_1461" data-name="Path 1461" d="M-507.114,235.232s6.984-2.61,11.831,13.042c3.137,10.127,12.743,15.236,30.473,16.206l-3.806,13.723h-22s-13.465,3.581-19.724-10.532S-513.942,236.917-507.114,235.232Z" transform="translate(513.875 -196.089)" fill="url(#linear-gradient-2)"/>
      <ellipse id="Ellipse_103" data-name="Ellipse 103" cx="0.487" cy="0.853" rx="0.487" ry="0.853" transform="translate(35.439 16.321)" fill="#191753"/>
      <path id="Path_1462" data-name="Path 1462" d="M-440.734,196.372c0,.471.218.853.487.853s.487-.382.487-.853-.218-.853-.487-.853S-440.734,195.9-440.734,196.372Z" transform="translate(482.412 -179.077)" fill="#191753"/>
      <path id="Path_1463" data-name="Path 1463" d="M-447.7,209.036a1.523,1.523,0,0,1-.814-.234,3.269,3.269,0,0,1-1.173-1.887.237.237,0,0,1,.182-.282.238.238,0,0,1,.282.181,2.847,2.847,0,0,0,.96,1.585,1.112,1.112,0,0,0,.9.117.237.237,0,0,1,.289.172.238.238,0,0,1-.172.289A1.831,1.831,0,0,1-447.7,209.036Z" transform="translate(486.267 -183.855)" fill="#d3ad89"/>
      <path id="Path_1464" data-name="Path 1464" d="M-433.35,249.566l-17.145,34.29a1.26,1.26,0,0,0,1.127,1.823h55.817a1.259,1.259,0,0,0,1.128-.7l17.879-36.036a1.259,1.259,0,0,0-1.134-1.819l-54.113.232A4,4,0,0,0-433.35,249.566Z" transform="translate(486.669 -201.275)" fill="url(#linear-gradient-10)"/>
      <path id="Path_1465" data-name="Path 1465" d="M-471.676,235.046a1.976,1.976,0,0,1-.35-.031c-5.746-1.027-7.375-8.481-7.39-8.557a.238.238,0,0,1,.184-.281.241.241,0,0,1,.281.184c.015.072,1.58,7.215,7.008,8.186a1.391,1.391,0,0,0,1.549-.807,4.153,4.153,0,0,0,.291-1.131A3.835,3.835,0,0,1-468.566,230a.238.238,0,0,1,.329.065.238.238,0,0,1-.065.33,3.416,3.416,0,0,0-1.328,2.268,4.635,4.635,0,0,1-.326,1.26A1.853,1.853,0,0,1-471.676,235.046Z" transform="translate(499.054 -192.263)" fill="#f8fafb"/>
      <path id="Path_1466" data-name="Path 1466" d="M-446.284,233.845a1.309,1.309,0,0,1-.607-.161,3.981,3.981,0,0,1-1.609-2.568c-.455-1.745-1.274-2.093-1.283-2.1a.239.239,0,0,1-.134-.307.236.236,0,0,1,.3-.138c.043.015,1.05.41,1.574,2.421a3.59,3.59,0,0,0,1.371,2.268.71.71,0,0,0,.583.072c.623-.223,5.378-5.7,5.1-9.031a.238.238,0,0,1,.217-.257.237.237,0,0,1,.256.217c.287,3.473-4.548,9.209-5.415,9.519A1.069,1.069,0,0,1-446.284,233.845Z" transform="translate(486.369 -191.348)" fill="#f8fafb"/>
      <path id="Path_1467" data-name="Path 1467" d="M-458.224,262.8l-.069-.213a.239.239,0,0,1,0-.134c.115-1.05.646-19.922.487-20.8-.15-.825-1.916-2.739-2.584-3.407a.238.238,0,0,1,0-.337.24.24,0,0,1,.336,0c.256.257,2.512,2.539,2.715,3.658.116.636-.042,7.1-.146,10.9-.2,7.135-.259,9.289-.358,9.96l.005.015-.008,0c-.042.272-.091.284-.159.3Zm.158-.284h0Z" transform="translate(490.899 -197.284)" fill="#f8fafb"/>
      <path id="Path_1468" data-name="Path 1468" d="M-446.32,266.629a.238.238,0,0,1-.232-.189c-2.11-10.216-4.625-22.42-4.625-22.548a.238.238,0,0,1,.238-.238.238.238,0,0,1,.236.213c.069.431,3.047,14.876,4.616,22.475a.237.237,0,0,1-.185.281A.233.233,0,0,1-446.32,266.629Zm-4.382-22.737h0Z" transform="translate(486.904 -199.783)" fill="#f8fafb"/>
      <path id="Path_1469" data-name="Path 1469" d="M-453.8,241.377c-.086,0-.173,0-.26-.013a.237.237,0,0,1-.214-.259.233.233,0,0,1,.259-.214,2.41,2.41,0,0,0,2.094-.91,3.756,3.756,0,0,0,.66-3.365.238.238,0,0,1,.167-.292.238.238,0,0,1,.291.168,4.236,4.236,0,0,1-.755,3.795A2.928,2.928,0,0,1-453.8,241.377Z" transform="translate(488.236 -196.627)" fill="#f8fafb"/>
      <path id="Path_1470" data-name="Path 1470" d="M-379.8,284.182a1.991,1.991,0,0,1-1.629-.7h0c-.785-1.014-.242-2.755,1.212-3.882s3.275-1.218,4.062-.205a2.044,2.044,0,0,1,.224,1.943,4.189,4.189,0,0,1-1.437,1.939A4.09,4.09,0,0,1-379.8,284.182Zm-1.253-.995c.625.806,2.148.676,3.4-.29a3.716,3.716,0,0,0,1.277-1.712,1.589,1.589,0,0,0-.149-1.5c-.625-.807-2.148-.676-3.4.29s-1.753,2.408-1.128,3.215Z" transform="translate(457.056 -214.853)" fill="#f8fafb"/>
    </g>
    <g id="Group_2773" data-name="Group 2773" transform="translate(1410.689 523.774)" opacity="0.24">
      <path id="Path_1471" data-name="Path 1471" d="M-506.872,174.252c-1.644,2.3-5.018,7.212-5.923,8.529-.046.063-.08.115-.109.161s-.052.074-.069.1a.079.079,0,0,1-.017.023l-.023.04c-.011.006-.011.011-.011.011v-10.8A10.749,10.749,0,0,1-506.872,174.252Z" transform="translate(523.845 -172.316)" fill="#191753"/>
      <path id="Path_1472" data-name="Path 1472" d="M-512.422,183.114a10.8,10.8,0,0,1-10.8,10.8,10.8,10.8,0,0,1-10.8-10.8,10.8,10.8,0,0,1,10.8-10.8h.023v10.8s0-.006.011-.011l.023-.04a.078.078,0,0,0,.017-.023l.069-.1.109-.161c.9-1.318,4.279-6.232,5.923-8.529a.156.156,0,0,1,.035.028A10.767,10.767,0,0,1-512.422,183.114Z" transform="translate(534.024 -172.316)" fill="#ffecb5"/>
      <path id="Path_1473" data-name="Path 1473" d="M-523.2,172.316v10.8h-10.821a10.8,10.8,0,0,1,10.8-10.8Z" transform="translate(534.024 -172.316)" fill="#ff4381"/>
    </g>
    <path id="Union_12" data-name="Union 12" d="M-4664.859,45.793l-.054-.03h0a11.226,11.226,0,0,1-5.912-3.229,13.658,13.658,0,0,1-2.256-3.815,15.5,15.5,0,0,1-.918-5.592V20.776c4.73,2.75,20.636,3.866,30.266,3.766,16.725-.171,24-9.37,37.986-15.466,19.373-11.277,30.58-12.358,55.877-1.481,16.473,7.08,36.823,4.146,57.555,1.211,18.64-2.637,37.589-5.275,54.308-.635,17.9,4.967,21.575,13.816,13.606,23.789-4.222,5.282,5.554,4.528,32.436,4.829,18.507.208,25.549,8.937,25.549,8.937h-233.626v.067Z" transform="translate(6062.018 570.142)" fill="#6c33a8" stroke="rgba(0,0,0,0)" stroke-miterlimit="10" stroke-width="1"/>
    <g id="Group_2774" data-name="Group 2774" transform="translate(1557.736 536.568)" opacity="0.36">
      <path id="Path_1477" data-name="Path 1477" d="M-410.609,190.124a.237.237,0,0,1-.237-.234.238.238,0,0,1,.234-.242c.148,0,13.253-.293,18.006-6.327a5.6,5.6,0,0,1-2.612-1.733,3.394,3.394,0,0,1-.261-4.553,3.363,3.363,0,0,1,3.924-1.1c.749.41,1.838,1.616.723,5.079a8.119,8.119,0,0,1-.991,2.033,9.466,9.466,0,0,0,3.8-.009c6.037-1.135,13.673-6.959,17.12-17.413a.237.237,0,0,1,.3-.151.236.236,0,0,1,.151.3c-3.508,10.638-11.308,16.57-17.483,17.731a9.807,9.807,0,0,1-4.184-.04c-1.83,2.417-5.124,4.271-9.7,5.434a43.327,43.327,0,0,1-8.782,1.227ZM-392.7,176.13a3.272,3.272,0,0,0-2.411,1.208c-.451.545-1.328,2.022.262,3.948a5.18,5.18,0,0,0,2.545,1.633,7.721,7.721,0,0,0,1.022-2.051c.738-2.292.557-3.939-.5-4.518A1.907,1.907,0,0,0-392.7,176.13Z" transform="translate(410.846 -165.304)" fill="#efc343"/>
      <path id="Path_1478" data-name="Path 1478" d="M-340.069,168.614a.238.238,0,0,1-.236-.21l-.346-2.951a.238.238,0,0,1,.209-.263.239.239,0,0,1,.263.209l.346,2.951a.237.237,0,0,1-.209.264Z" transform="translate(380.651 -165.187)" fill="#efc343"/>
      <path id="Path_1479" data-name="Path 1479" d="M-344.2,167.9a.237.237,0,0,1-.19-.1.237.237,0,0,1,.047-.332c.141-.111,1.38-1.417,2.128-2.215a.237.237,0,0,1,.336-.011.237.237,0,0,1,.011.336c-.331.353-1.993,2.124-2.189,2.27A.234.234,0,0,1-344.2,167.9Z" transform="translate(382.28 -165.187)" fill="#efc343"/>
    </g>
    <g id="Group_2775" data-name="Group 2775" transform="translate(1569.492 483.861)">
      <path id="Path_1480" data-name="Path 1480" d="M-559.594,236.647a6.932,6.932,0,0,1-6.924-6.924,6.932,6.932,0,0,1,6.924-6.924,6.932,6.932,0,0,1,6.924,6.924A6.932,6.932,0,0,1-559.594,236.647Zm0-13.455a6.539,6.539,0,0,0-6.532,6.532,6.539,6.539,0,0,0,6.532,6.532,6.539,6.539,0,0,0,6.532-6.532A6.539,6.539,0,0,0-559.594,223.192Z" transform="translate(566.518 -222.8)" fill="#e380a1"/>
      <path id="Path_1481" data-name="Path 1481" d="M-554.059,237.444a2.458,2.458,0,0,1-.5-.052,1.935,1.935,0,0,1-1.553-1.286.2.2,0,0,1,.15-.233.2.2,0,0,1,.233.15,1.564,1.564,0,0,0,1.249.985,2.052,2.052,0,0,0,2.129-.915,1.2,1.2,0,0,0,.28-.919c-.112-.606-.867-1.1-1.665-1.626-.929-.611-1.89-1.242-2-2.18a1.4,1.4,0,0,1,.519-1.393,1.881,1.881,0,0,1,1.805-.128,1.1,1.1,0,0,1,.71.867.2.2,0,0,1-.177.213.2.2,0,0,1-.214-.177.721.721,0,0,0-.48-.544,1.5,1.5,0,0,0-1.412.087,1.032,1.032,0,0,0-.361,1.031c.09.756.973,1.337,1.828,1.9.871.572,1.693,1.112,1.836,1.884a1.581,1.581,0,0,1-.347,1.218A2.487,2.487,0,0,1-554.059,237.444Z" transform="translate(561.009 -226.441)" fill="#e380a1"/>
      <path id="Path_1482" data-name="Path 1482" d="M-552.323,237.274l-.034,0a.2.2,0,0,1-.159-.227c.513-2.934-.659-8.9-.813-9.337a.2.2,0,0,1-.02-.164.2.2,0,0,1,.248-.125c.4.133,1.457,6.912.971,9.694A.2.2,0,0,1-552.323,237.274Z" transform="translate(559.549 -225.24)" fill="#e380a1"/>
    </g>
    <path id="Path_1483" data-name="Path 1483" d="M-571.947,271.365a1.709,1.709,0,0,1-1.708-1.707,1.71,1.71,0,0,1,1.708-1.708,1.711,1.711,0,0,1,1.708,1.708A1.71,1.71,0,0,1-571.947,271.365Zm0-2.94a1.234,1.234,0,0,0-1.233,1.233,1.234,1.234,0,0,0,1.233,1.233,1.234,1.234,0,0,0,1.233-1.233A1.235,1.235,0,0,0-571.947,268.424Z" transform="translate(1982.617 302.176)" fill="#d7b695"/>
    <path id="Path_1500" data-name="Path 1500" d="M-571.161,272.937a2.5,2.5,0,0,1-2.494-2.493,2.5,2.5,0,0,1,2.494-2.495,2.5,2.5,0,0,1,2.494,2.495A2.5,2.5,0,0,1-571.161,272.937Zm0-4.294a1.8,1.8,0,0,0-1.8,1.8,1.8,1.8,0,0,0,1.8,1.8,1.8,1.8,0,0,0,1.8-1.8A1.8,1.8,0,0,0-571.161,268.643Z" transform="translate(2382.459 312.018)" fill="#d7b695" opacity="0.5"/>
    <g id="Group_2778" data-name="Group 2778" transform="translate(1409.31 471.07)">
      <g id="Group_2777" data-name="Group 2777">
        <g id="Group_2776" data-name="Group 2776">
          <path id="Path_1484" data-name="Path 1484" d="M-479.125,126.153a4.62,4.62,0,0,1-2.232-.421c-.336-.212-.384-.442-.365-.6.04-.326.425-.6.791-.781a1.491,1.491,0,0,1-.555-.242c-.238-.19-.327-.38-.262-.566.041-.118.167-.479,1.793-.483a13.373,13.373,0,0,1,3.821.552,3.37,3.37,0,0,0,.492-.215c.144-.08.384-.238.366-.395-.059-.515-.937-.628-1.111-.646l-.089.025-.1-.106c-.1-.12-.278-.343,1.772-4.3a6.346,6.346,0,0,0-.08-6.7,4.9,4.9,0,0,0-4.816-1.991,4.87,4.87,0,0,0-3.9,2.989,6.081,6.081,0,0,0,1.063,5.943,13.258,13.258,0,0,1,2.174,4.214.194.194,0,0,1-.138.236.193.193,0,0,1-.237-.137,13.135,13.135,0,0,0-2.108-4.078,6.463,6.463,0,0,1-1.114-6.322,5.249,5.249,0,0,1,4.2-3.227,5.344,5.344,0,0,1,5.19,2.148,6.722,6.722,0,0,1,.11,7.1,23.479,23.479,0,0,0-1.767,3.836c.377.054,1.25.256,1.333.973.033.29-.157.551-.564.777-.052.029-.11.058-.17.086a1.221,1.221,0,0,1,.649.594.724.724,0,0,1-.32.847A7.22,7.22,0,0,1-479.125,126.153Zm-1.077-1.684c-.468.158-1.107.487-1.136.714-.01.084.113.176.187.222,1.03.65,4.6.37,5.614-.441.267-.213.215-.36.2-.416-.064-.181-.353-.363-.8-.527A11.9,11.9,0,0,1-480.2,124.469Zm.027-.379a11.989,11.989,0,0,0,3.341-.275,13.089,13.089,0,0,0-1.8-.3c-1.739-.171-2.656.019-2.749.155a.739.739,0,0,0,.137.136,2.062,2.062,0,0,0,.989.274A.184.184,0,0,1-480.175,124.09Z" transform="translate(488.952 -104.39)" fill="#efc343"/>
          <path id="Path_1485" data-name="Path 1485" d="M-473.368,147.532h-.048c-1.258-.041-1.4-1.811-1.406-1.886a.194.194,0,0,1,.179-.207.2.2,0,0,1,.207.179c0,.015.122,1.5,1.033,1.527.878.046,1.25-1.074,1.4-1.734l.2,0,.18.081C-471.92,146.811-472.537,147.532-473.368,147.532Z" transform="translate(483.844 -123.972)" fill="#efc343"/>
          <path id="Path_1486" data-name="Path 1486" d="M-491.507,119.432a.2.2,0,0,1-.074-.015A5.919,5.919,0,0,0-494,119.23a.193.193,0,0,1-.235-.141.193.193,0,0,1,.141-.235,6.233,6.233,0,0,1,2.664.2.193.193,0,0,1,.1.253A.194.194,0,0,1-491.507,119.432Z" transform="translate(494.244 -109.72)" fill="#efc343"/>
          <path id="Path_1487" data-name="Path 1487" d="M-488.284,105.474a.194.194,0,0,1-.143-.063,36.518,36.518,0,0,0-3.489-2.71.193.193,0,0,1-.048-.269.193.193,0,0,1,.269-.048,35.593,35.593,0,0,1,3.553,2.766.193.193,0,0,1-.012.274A.194.194,0,0,1-488.284,105.474Z" transform="translate(493.041 -100.913)" fill="#efc343"/>
          <path id="Path_1488" data-name="Path 1488" d="M-476.049,102.19a.194.194,0,0,1-.174-.107,12.537,12.537,0,0,1-.476-2.611.194.194,0,0,1,.174-.211.193.193,0,0,1,.211.174,12.31,12.31,0,0,0,.437,2.475.193.193,0,0,1-.086.26A.193.193,0,0,1-476.049,102.19Z" transform="translate(484.849 -99.259)" fill="#efc343"/>
          <path id="Path_1489" data-name="Path 1489" d="M-463.733,105.018a.184.184,0,0,1-.047-.006.193.193,0,0,1-.141-.235,12.522,12.522,0,0,1,1.6-2.357.193.193,0,0,1,.272-.028.194.194,0,0,1,.028.272,12.1,12.1,0,0,0-1.527,2.207A.194.194,0,0,1-463.733,105.018Z" transform="translate(478.009 -100.913)" fill="#efc343"/>
          <path id="Path_1490" data-name="Path 1490" d="M-457.417,117.534a.194.194,0,0,1-.174-.107.194.194,0,0,1,.086-.26,14.842,14.842,0,0,1,3.8-1.064.194.194,0,0,1,.194.194.194.194,0,0,1-.194.194,14.369,14.369,0,0,0-3.629,1.023A.193.193,0,0,1-457.417,117.534Z" transform="translate(474.627 -108.279)" fill="#efc343"/>
          <path id="Path_1491" data-name="Path 1491" d="M-473.026,128.174h-.016a.193.193,0,0,1-.177-.209c.153-1.884.326-6.987-.708-7.973a.453.453,0,0,0-.4-.142.562.562,0,0,0-.4.265c-1.032,1.492.423,7.707.438,7.77a.193.193,0,0,1-.144.233.194.194,0,0,1-.233-.144c-.062-.262-1.509-6.446-.38-8.079a.943.943,0,0,1,.668-.429.838.838,0,0,1,.713.245c1.377,1.315.849,8,.826,8.285A.193.193,0,0,1-473.026,128.174Z" transform="translate(484.191 -110.075)" fill="#efc343"/>
        </g>
        <path id="Path_1492" data-name="Path 1492" d="M-490.658,130.787a.194.194,0,0,1-.157-.079.194.194,0,0,1,.043-.271l1.99-1.447a.193.193,0,0,1,.27.043.193.193,0,0,1-.043.27l-1.99,1.448A.2.2,0,0,1-490.658,130.787Z" transform="translate(492.427 -115.159)" fill="#efc343"/>
        <path id="Path_1493" data-name="Path 1493" d="M-456.165,129.657a.191.191,0,0,1-.092-.023l-2.94-1.584a.193.193,0,0,1-.078-.262.193.193,0,0,1,.262-.079l2.94,1.584a.193.193,0,0,1,.079.262A.193.193,0,0,1-456.165,129.657Z" transform="translate(475.531 -114.482)" fill="#efc343"/>
      </g>
      <path id="Path_1494" data-name="Path 1494" d="M-419.92,145.152a.194.194,0,0,1-.194-.194v-3.881a.194.194,0,0,1,.194-.194.194.194,0,0,1,.194.194v3.881A.194.194,0,0,1-419.92,145.152Z" transform="translate(450.211 -121.549)" fill="#efc343"/>
      <path id="Path_1495" data-name="Path 1495" d="M-420.074,145.294h-3.594a.193.193,0,0,1-.193-.193.193.193,0,0,1,.193-.194h3.594a.194.194,0,0,1,.194.194A.193.193,0,0,1-420.074,145.294Z" transform="translate(452.271 -123.703)" fill="#efc343"/>
      <path id="Path_1496" data-name="Path 1496" d="M-404.922,155.763a.776.776,0,0,1-.6-.285.778.778,0,0,1,.11-1.093.778.778,0,0,1,1.094.109h0a.778.778,0,0,1-.11,1.093A.773.773,0,0,1-404.922,155.763Zm0-1.166a.389.389,0,0,0-.247.087.391.391,0,0,0-.055.549.392.392,0,0,0,.549.055.391.391,0,0,0,.054-.549A.389.389,0,0,0-404.923,154.6Z" transform="translate(442.848 -128.684)" fill="#efc343"/>
    </g>
    <path id="Union_13" data-name="Union 13" d="M9.155,45.793,9.1,45.763h0a11.251,11.251,0,0,1-5.921-3.23,13.654,13.654,0,0,1-2.26-3.815A15.517,15.517,0,0,1,0,33.127V20.776c4.738,2.751,20.67,3.866,30.315,3.767,16.751-.172,24.035-9.37,38.046-15.467C87.767-2.2,98.992-3.282,124.329,7.6c16.5,7.08,36.883,4.146,57.649,1.212,18.669-2.638,37.649-5.276,54.394-.636C254.3,13.138,257.982,21.987,250,31.959c-4.228,5.282,5.564,4.528,32.489,4.83,18.537.208,25.59,8.937,25.59,8.937h-234v.067Z" transform="translate(1388.018 570.143)" stroke="rgba(0,0,0,0)" stroke-miterlimit="10" stroke-width="1" opacity="0.09" fill="url(#linear-gradient-11)"/>
    <path id="Path_1476" data-name="Path 1476" d="M-270.186,358.042h-1.068c-1.559-.741-4.783-1.058-9.47-1.527-3.421-.342-7.692-.766-12.654-1.5-5.528-.817-9.072-2.49-10.547-4.986-3.014-5.074,3.563-11.656,3.846-11.935,3.7-5.271,3.195-9.5-1.474-12.208-12.748-7.38-54.632-2.737-96.667,15.945-14.129,6.278-19.3,3.4-27.123-.95-8-4.453-18.976-10.56-45.74-10.117-24.911.4-51.183,9.566-78.3,27.279h-1.134a205.078,205.078,0,0,1,18.5-10.9c20.979-10.877,41.478-16.547,60.907-16.857,27.028-.45,38.122,5.727,46.212,10.225,7.853,4.364,12.588,7.006,26.281.925,19.468-8.654,40.589-14.976,59.461-17.789,17.587-2.629,31.461-1.945,38.057,1.875,4.933,2.863,5.5,7.285,1.625,12.8-.094.1-6.681,6.684-3.809,11.53,1.39,2.337,4.764,3.915,10.046,4.694,4.943.728,9.2,1.153,12.607,1.488C-275.175,356.585-271.641,356.94-270.186,358.042Z" transform="translate(1950.792 257.893)" fill="#f8fafb" opacity="0.1"/>
    <path id="Path_1475" data-name="Path 1475" d="M-342.662,375.171s23.839-28.375,3.11-35.1c-31.819-10.323-56.558,33.464-87.453,21.458s-75.257,13.7-75.257,13.7S-329.533,375.171-342.662,375.171Z" transform="translate(1914.803 240.729)" fill="#e380a1"/>
  </g>
</svg>