<svg xmlns="http://www.w3.org/2000/svg" width="16.446" height="16.446" viewBox="0 0 16.446 16.446">
  <path id="customer" d="M12.141,6.836a5.343,5.343,0,0,0-.563.031,5.333,5.333,0,1,0-4.711,4.711,5.3,5.3,0,1,0,5.274-4.742ZM6.305,11.08a4.806,4.806,0,1,1,4.726-4.126,5.237,5.237,0,0,0-.562.155A4.258,4.258,0,1,0,7.109,10.47a5.312,5.312,0,0,0-.155.561A4.82,4.82,0,0,1,6.305,11.08Zm1.05-1.214a3.7,3.7,0,0,1-3.69-.953.788.788,0,0,1,.625-.663l.98-.2a1.075,1.075,0,0,0,.175-.069l.86,1.154L7.167,7.98a1.134,1.134,0,0,0,.193.077l.959.194a.785.785,0,0,1,.166.055A5.326,5.326,0,0,0,7.355,9.866ZM4.979,6.305a.265.265,0,1,1,0-.531Zm.207-1.061H4.979a.785.785,0,0,0-.2.029,1.228,1.228,0,0,1,1.171-1.62h.713a1.228,1.228,0,0,1,1.171,1.62.785.785,0,0,0-.2-.029H6.9a2.257,2.257,0,0,1-1.005-.237l-.056-.028H5.775A.792.792,0,0,0,5.186,5.244Zm2.446.531a.265.265,0,1,1,0,.531ZM7.1,6.305a.8.8,0,1,1-1.592,0V5.775a.266.266,0,0,1,.215-.26,2.794,2.794,0,0,0,1.174.26h.2ZM5.9,7.56a1.208,1.208,0,0,0,.817,0c.015.026.031.051.048.075l-.457.613-.456-.612C5.866,7.611,5.882,7.586,5.9,7.56Zm3.016.38a1.311,1.311,0,0,0-.489-.21l-.939-.189a.528.528,0,0,1-.31-.243,1.328,1.328,0,0,0,.344-.462h.113a.794.794,0,0,0,.651-1.251A1.762,1.762,0,0,0,6.661,3.122H5.949a1.762,1.762,0,0,0-1.62,2.462.794.794,0,0,0,.651,1.251h.112a1.328,1.328,0,0,0,.344.463.508.508,0,0,1-.29.238l-.959.194a1.312,1.312,0,0,0-.918.705,3.713,3.713,0,1,1,6.6-1.079,5.323,5.323,0,0,0-.953.584Zm3.228,8.975a4.775,4.775,0,1,1,4.775-4.775A4.78,4.78,0,0,1,12.141,16.915Zm3.745-9.48L16.4,7.3c.05.185.092.373.127.562l-.522.1C15.971,7.781,15.931,7.606,15.886,7.435Zm-4.01-4.048a.791.791,0,0,0,.581-.256,6.96,6.96,0,0,1,3.271,3.792l.5-.177a7.494,7.494,0,0,0-3.561-4.1c0-.017.005-.034.005-.051a.8.8,0,1,0-.8.8Zm0-1.061a.265.265,0,1,1-.265.265A.266.266,0,0,1,11.875,2.326ZM2.442,10.49c.032.175.072.35.118.521l-.512.137c-.05-.185-.092-.373-.127-.562ZM6.57,16.65a.8.8,0,1,0-.581-1.336,6.962,6.962,0,0,1-3.271-3.792l-.5.177A7.494,7.494,0,0,0,5.78,15.8c0,.017-.005.034-.005.051A.8.8,0,0,0,6.57,16.65Zm0-1.061a.265.265,0,1,1-.265.265A.266.266,0,0,1,6.57,15.589ZM15.278,9.8a1.056,1.056,0,0,0-.946-.293,1.094,1.094,0,0,0-.575.314l-2.943,2.942-.821-.821a1.1,1.1,0,0,0-.575-.313A1.062,1.062,0,0,0,8.18,12.867a1.094,1.094,0,0,0,.314.575l1.571,1.571a1.06,1.06,0,0,0,1.5,0l3.693-3.693a1.094,1.094,0,0,0,.314-.575,1.055,1.055,0,0,0-.293-.946h0Zm-.229.852a.577.577,0,0,1-.167.294L11.19,14.638a.543.543,0,0,1-.75,0L8.868,13.067a.579.579,0,0,1-.167-.294.532.532,0,0,1,.522-.632.522.522,0,0,1,.395.176l1.2,1.2,3.318-3.318a.579.579,0,0,1,.294-.167.532.532,0,0,1,.623.623Z" transform="translate(-1 -1)" fill="#fff"/>
</svg>
