<svg xmlns="http://www.w3.org/2000/svg" width="15.412" height="15.412" viewBox="0 0 15.412 15.412">
  <g id="XMLID_17_" transform="translate(0 -0.002)">
    <path id="XMLID_40_" d="M257.823.4A7.874,7.874,0,0,0,255,0V3.221Z" transform="translate(-247.294 0)" fill="#5e3787"/>
    <path id="XMLID_560_" d="M406.712,164.428a7.873,7.873,0,0,0-.4-2.823l-2.823,2.823Z" transform="translate(-391.3 -156.719)" fill="#5e3787"/>
    <path id="XMLID_561_" d="M255,65.9h.641l5.252-5.252a7.285,7.285,0,0,0-.641-.641L255,65.263Z" transform="translate(-247.294 -58.195)" fill="#5e3787"/>
    <path id="XMLID_562_" d="M319.921,109.629l3.724-3.724a7.253,7.253,0,0,0-.475-.807l-4.531,4.531Z" transform="translate(-309.01 -101.92)" fill="#5e3787"/>
    <path id="XMLID_2261_" d="M255,30.729,259.53,26.2a7.238,7.238,0,0,0-.807-.476L255,29.447Z" transform="translate(-247.294 -24.943)" fill="#5e3787"/>
    <path id="XMLID_2337_" d="M6.8,29.884l-.513.068A7.254,7.254,0,0,0,1.813,41.939L6.8,36.953Z" transform="translate(0 -28.979)" fill="#5e3787"/>
    <path id="XMLID_2340_" d="M81.205,290.006a7.254,7.254,0,0,0,11.987-4.473l.068-.513H86.191Z" transform="translate(-78.751 -276.405)" fill="#5e3787"/>
  </g>
</svg>
