<svg xmlns="http://www.w3.org/2000/svg" width="14.725" height="15.428" viewBox="0 0 14.725 15.428">
  <g id="setting" transform="translate(-0.547)">
    <path id="Path_1692" data-name="Path 1692" d="M8.833,1.286,9.08,2.358a1.284,1.284,0,0,0,.748.894,4.468,4.468,0,0,1,.973.569,1.287,1.287,0,0,0,1.175.207L13.015,3.7,13.94,5.3l-.8.738a1.283,1.283,0,0,0-.407,1.08,5.568,5.568,0,0,1,0,1.183,1.285,1.285,0,0,0,.411,1.083l.8.732-.93,1.609-1.036-.33a1.287,1.287,0,0,0-1.175.207,4.468,4.468,0,0,1-.973.569,1.287,1.287,0,0,0-.749.895l-.246,1.072H6.985L6.738,13.07a1.286,1.286,0,0,0-.749-.895,4.443,4.443,0,0,1-.973-.569A1.286,1.286,0,0,0,3.842,11.4L2.8,11.731,1.88,10.124l.8-.739a1.283,1.283,0,0,0,.407-1.08,5.568,5.568,0,0,1,0-1.183A1.285,1.285,0,0,0,2.677,6.04l-.8-.733L2.806,3.7l1.036.33a1.287,1.287,0,0,0,1.175-.207,4.468,4.468,0,0,1,.973-.569,1.285,1.285,0,0,0,.748-.894l.247-1.072Zm4.3,2.373h0ZM8.977,0H6.843a1.114,1.114,0,0,0-1.08.868l-.276,1.2A5.755,5.755,0,0,0,4.233,2.8L3.063,2.43a1.125,1.125,0,0,0-.333-.05,1.107,1.107,0,0,0-.966.552L.69,4.789A1.125,1.125,0,0,0,.9,6.158l.906.829a6.86,6.86,0,0,0,0,1.453L.9,9.276A1.112,1.112,0,0,0,.7,10.646l1.061,1.845a1.127,1.127,0,0,0,1.3.508l1.17-.373a5.755,5.755,0,0,0,1.254.733l.276,1.2a1.114,1.114,0,0,0,1.08.868H8.977a1.114,1.114,0,0,0,1.08-.868l.276-1.2a5.755,5.755,0,0,0,1.254-.733l1.17.373a1.125,1.125,0,0,0,.333.05,1.107,1.107,0,0,0,.966-.552l1.074-1.858a1.114,1.114,0,0,0-.212-1.363V9.27l-.906-.829a6.86,6.86,0,0,0,0-1.453l.906-.836a1.112,1.112,0,0,0,.206-1.369L14.062,2.938a1.127,1.127,0,0,0-1.3-.508l-1.17.373a5.755,5.755,0,0,0-1.254-.733l-.276-1.2A1.114,1.114,0,0,0,8.977,0Z" fill="#94c0d4"/>
    <path id="Path_1693" data-name="Path 1693" d="M7.911,12.015a.486.486,0,0,1,.039.681.484.484,0,0,1-.681.039L5.661,11.289a.484.484,0,0,1,0-.72L7.268,9.123a.483.483,0,0,1,.643.72L6.7,10.929Z" transform="translate(-1.769 -3.215)" fill="#94c0d4"/>
    <path id="Path_1694" data-name="Path 1694" d="M12.416,8.592l-.964,4.179a.478.478,0,0,1-.579.36.485.485,0,0,1-.36-.579l.964-4.179a.482.482,0,0,1,.939.219Z" transform="translate(-3.555 -2.858)" fill="#94c0d4"/>
    <path id="Path_1695" data-name="Path 1695" d="M16.911,11.289,15.3,12.735a.484.484,0,0,1-.681-.039.486.486,0,0,1,.039-.681l1.209-1.086L14.661,9.843a.483.483,0,0,1,.643-.72l1.607,1.446a.484.484,0,0,1,0,.72Z" transform="translate(-4.984 -3.215)" fill="#94c0d4"/>
  </g>
</svg>
