<svg xmlns="http://www.w3.org/2000/svg" width="14.504" height="13.598" viewBox="0 0 14.504 13.598">
  <g id="note" transform="translate(0 -16)">
    <path id="Path_779" data-name="Path 779" d="M12.635,16H1.87A1.872,1.872,0,0,0,0,17.87v9.858A1.872,1.872,0,0,0,1.87,29.6h9.462a2.081,2.081,0,0,0,1.481-.614l1.078-1.078a2.081,2.081,0,0,0,.614-1.481V17.87A1.872,1.872,0,0,0,12.635,16ZM1.87,16.907H12.635a.964.964,0,0,1,.963.963v1.3H.907v-1.3A.964.964,0,0,1,1.87,16.907ZM.907,27.728V20.079H13.6v5.892H12.181a1.3,1.3,0,0,0-1.3,1.3v1.416H1.87A.964.964,0,0,1,.907,27.728Zm12.343-.463-1.078,1.078a1.186,1.186,0,0,1-.387.259V27.275a.4.4,0,0,1,.4-.4h1.327A1.187,1.187,0,0,1,13.25,27.265Z" transform="translate(0 0)" fill="#94c0d4"/>
    <path id="Path_780" data-name="Path 780" d="M120.159,208.453a.453.453,0,0,0-.453-.453h-7.252a.453.453,0,1,0,0,.907h7.252A.453.453,0,0,0,120.159,208.453Z" transform="translate(-108.827 -186.561)" fill="#94c0d4"/>
    <path id="Path_781" data-name="Path 781" d="M149.892,288h-5.439a.453.453,0,1,0,0,.907h5.439a.453.453,0,1,0,0-.907Z" transform="translate(-139.921 -264.295)" fill="#94c0d4"/>
  </g>
</svg>
