<svg xmlns="http://www.w3.org/2000/svg" width="16.64" height="17.719" viewBox="0 0 16.64 17.719">
  <g id="shine" transform="translate(-1 0)">
    <path id="Path_930" data-name="Path 930" d="M233.851,230.105a3.927,3.927,0,0,1-2.786-1.144,3.871,3.871,0,0,1-1.152-2.766.519.519,0,1,0-1.038,0,3.871,3.871,0,0,1-1.152,2.766,3.928,3.928,0,0,1-2.786,1.144.519.519,0,1,0,0,1.038,3.935,3.935,0,0,1,3.938,3.922.519.519,0,1,0,1.038,0,3.934,3.934,0,0,1,3.938-3.922.519.519,0,1,0,0-1.038Zm-4.457,2.755a5,5,0,0,0-2.236-2.234,5,5,0,0,0,2.236-2.224,5,5,0,0,0,2.236,2.224A5,5,0,0,0,229.394,232.861Zm0,0" transform="translate(-216.731 -217.866)" fill="#94c0d4"/>
    <path id="Path_931" data-name="Path 931" d="M7.1,145.127a2.766,2.766,0,0,1-2.773-2.752.519.519,0,0,0-1.038,0,2.766,2.766,0,0,1-2.773,2.752.519.519,0,0,0,0,1.038,2.77,2.77,0,0,1,2.773,2.761.519.519,0,0,0,1.038,0A2.77,2.77,0,0,1,7.1,146.165a.519.519,0,0,0,0-1.038ZM3.81,147.014a3.834,3.834,0,0,0-1.369-1.367,3.83,3.83,0,0,0,1.369-1.364,3.83,3.83,0,0,0,1.369,1.364A3.833,3.833,0,0,0,3.81,147.014Zm0,0" transform="translate(1 -136.947)" fill="#94c0d4"/>
    <path id="Path_932" data-name="Path 932" d="M215.156,3.587A2.034,2.034,0,0,1,217.2,5.61a.519.519,0,1,0,1.038,0,2.037,2.037,0,0,1,2.039-2.03.519.519,0,0,0,0-1.038A2.034,2.034,0,0,1,218.233.519a.519.519,0,1,0-1.038,0,2.037,2.037,0,0,1-2.039,2.03.519.519,0,1,0,0,1.038Zm2.559-1.366a3.1,3.1,0,0,0,.845.841,3.1,3.1,0,0,0-.848.847,3.1,3.1,0,0,0-.845-.841A3.1,3.1,0,0,0,217.716,2.221Zm0,0" transform="translate(-206.209)" fill="#94c0d4"/>
  </g>
</svg>
