<svg xmlns="http://www.w3.org/2000/svg" width="17.228" height="14.538" viewBox="0 0 17.228 14.538">
  <g id="switch" transform="translate(0 -1)">
    <path id="Path_782" data-name="Path 782" d="M3.589,7.178A3.589,3.589,0,1,1,7.178,3.589,3.593,3.593,0,0,1,3.589,7.178Zm0-6.1A2.512,2.512,0,1,0,6.1,3.589,2.515,2.515,0,0,0,3.589,1.077Zm0,0" transform="translate(0 1)" fill="#94c0d4"/>
    <path id="Path_783" data-name="Path 783" d="M173.609,41.419h-8.793a.512.512,0,1,1,0-1.022h8.793a1.023,1.023,0,1,0,0-2.044h-9.016a.512.512,0,1,1,0-1.022h9.016a2.046,2.046,0,1,1,0,4.087Zm0,0" transform="translate(-158.535 -34.966)" fill="#94c0d4"/>
    <path id="Path_784" data-name="Path 784" d="M302.257,263.178a3.589,3.589,0,1,1,3.589-3.589A3.593,3.593,0,0,1,302.257,263.178Zm0-6.1a2.512,2.512,0,1,0,2.512,2.512A2.515,2.515,0,0,0,302.257,257.077Zm0,0" transform="translate(-288.618 -247.641)" fill="#94c0d4"/>
    <path id="Path_785" data-name="Path 785" d="M10.947,297.295H2.153a1.988,1.988,0,1,1,0-3.963h9.016a.5.5,0,1,1,0,.991H2.153a.994.994,0,1,0,0,1.981h8.793a.5.5,0,1,1,0,.991Zm0,0" transform="translate(0 -283.544)" fill="#94c0d4"/>
  </g>
</svg>
