<svg xmlns="http://www.w3.org/2000/svg" width="16.577" height="16.921" viewBox="0 0 16.577 16.921">
  <g id="Group_2347" data-name="Group 2347" transform="translate(-64.969 -136.925)">
    <path id="Path_949" data-name="Path 949" d="M73.759,140.117l-1.276-.957a.268.268,0,0,1,0-.427l1.276-.957-.638-.851-2.412,1.808a.268.268,0,0,0,0,.427l2.412,1.808Z" transform="translate(-0.41)" fill="#94c0d4"/>
    <path id="Path_950" data-name="Path 950" d="M76.618,153.688l.311,1.017a7.685,7.685,0,0,0,1.064-.414l-.458-.958A6.738,6.738,0,0,1,76.618,153.688Z" transform="translate(-0.848 -1.194)" fill="#94c0d4"/>
    <path id="Path_951" data-name="Path 951" d="M74.524,154.02v1.064A7.8,7.8,0,0,0,75.662,155l-.155-1.052A6.833,6.833,0,0,1,74.524,154.02Z" transform="translate(-0.695 -1.239)" fill="#94c0d4"/>
    <path id="Path_952" data-name="Path 952" d="M80.926,141.939a7.716,7.716,0,0,0-6.4-3.407V139.6a6.651,6.651,0,0,1,3.714,12.17l.6.883A7.716,7.716,0,0,0,80.926,141.939Z" transform="translate(-0.695 -0.117)" fill="#94c0d4"/>
    <path id="Path_953" data-name="Path 953" d="M68.76,141.886l-3.769,8.88a.278.278,0,0,0,.147.363l6.477,2.75a.278.278,0,0,0,.363-.147l3.769-8.879a.276.276,0,0,0-.146-.363l-6.477-2.75A.279.279,0,0,0,68.76,141.886Zm2.291,10.6-4.518-1.917a.277.277,0,0,1-.146-.364l2.937-6.921a.278.278,0,0,1,.363-.147l4.518,1.917a.276.276,0,0,1,.146.363l-2.937,6.922A.276.276,0,0,1,71.052,152.484Z" transform="translate(0 -0.349)" fill="#94c0d4"/>
  </g>
</svg>
