<svg xmlns="http://www.w3.org/2000/svg" width="16.228" height="16.228" viewBox="0 0 16.228 16.228">
  <g id="Group_2372" data-name="Group 2372" transform="translate(-218.861 -248.477)">
    <g id="Group_2349" data-name="Group 2349" transform="translate(218.861 248.477)">
      <g id="Group_2348" data-name="Group 2348">
        <path id="Path_954" data-name="Path 954" d="M234.456,259.634a.634.634,0,0,0,.634-.635V252.28a2.538,2.538,0,0,0-2.535-2.535h-.824v-.634a.634.634,0,0,0-1.269,0v.634h-2.884v-.634a.634.634,0,0,0-1.268,0v.634h-2.853v-.634a.634.634,0,0,0-1.268,0v.634H221.4a2.539,2.539,0,0,0-2.536,2.535v9.889a2.539,2.539,0,0,0,2.536,2.536h11.157a2.538,2.538,0,0,0,2.535-2.536.634.634,0,1,0-1.268,0,1.269,1.269,0,0,1-1.268,1.268H221.4a1.269,1.269,0,0,1-1.268-1.268V252.28a1.269,1.269,0,0,1,1.268-1.268h.792v.634a.634.634,0,0,0,1.268,0v-.634h2.853v.634a.634.634,0,0,0,1.268,0v-.634h2.884v.634a.634.634,0,0,0,1.269,0v-.634h.824a1.269,1.269,0,0,1,1.268,1.268V259A.634.634,0,0,0,234.456,259.634Z" transform="translate(-218.861 -248.477)" fill="#94c0d4"/>
      </g>
    </g>
    <g id="Group_2351" data-name="Group 2351" transform="translate(222.189 254.499)">
      <g id="Group_2350" data-name="Group 2350">
        <circle id="Ellipse_67" data-name="Ellipse 67" cx="0.634" cy="0.634" r="0.634" fill="#94c0d4"/>
      </g>
    </g>
    <g id="Group_2353" data-name="Group 2353" transform="translate(227.704 254.499)">
      <g id="Group_2352" data-name="Group 2352">
        <circle id="Ellipse_68" data-name="Ellipse 68" cx="0.634" cy="0.634" r="0.634" fill="#94c0d4"/>
      </g>
    </g>
    <g id="Group_2355" data-name="Group 2355" transform="translate(230.462 254.499)">
      <g id="Group_2354" data-name="Group 2354">
        <circle id="Ellipse_69" data-name="Ellipse 69" cx="0.634" cy="0.634" r="0.634" fill="#94c0d4"/>
      </g>
    </g>
    <g id="Group_2357" data-name="Group 2357" transform="translate(222.189 257.256)">
      <g id="Group_2356" data-name="Group 2356">
        <circle id="Ellipse_70" data-name="Ellipse 70" cx="0.634" cy="0.634" r="0.634" fill="#94c0d4"/>
      </g>
    </g>
    <g id="Group_2359" data-name="Group 2359" transform="translate(222.189 260.014)">
      <g id="Group_2358" data-name="Group 2358">
        <circle id="Ellipse_71" data-name="Ellipse 71" cx="0.634" cy="0.634" r="0.634" fill="#94c0d4"/>
      </g>
    </g>
    <g id="Group_2361" data-name="Group 2361" transform="translate(224.947 254.499)">
      <g id="Group_2360" data-name="Group 2360">
        <circle id="Ellipse_72" data-name="Ellipse 72" cx="0.634" cy="0.634" r="0.634" fill="#94c0d4"/>
      </g>
    </g>
    <g id="Group_2363" data-name="Group 2363" transform="translate(224.947 257.256)">
      <g id="Group_2362" data-name="Group 2362">
        <circle id="Ellipse_73" data-name="Ellipse 73" cx="0.634" cy="0.634" r="0.634" fill="#94c0d4"/>
      </g>
    </g>
    <g id="Group_2365" data-name="Group 2365" transform="translate(224.947 260.014)">
      <g id="Group_2364" data-name="Group 2364">
        <circle id="Ellipse_74" data-name="Ellipse 74" cx="0.634" cy="0.634" r="0.634" fill="#94c0d4"/>
      </g>
    </g>
    <g id="Group_2367" data-name="Group 2367" transform="translate(227.704 257.256)">
      <g id="Group_2366" data-name="Group 2366">
        <circle id="Ellipse_75" data-name="Ellipse 75" cx="0.634" cy="0.634" r="0.634" fill="#94c0d4"/>
      </g>
    </g>
    <g id="Group_2369" data-name="Group 2369" transform="translate(230.462 257.256)">
      <g id="Group_2368" data-name="Group 2368">
        <circle id="Ellipse_76" data-name="Ellipse 76" cx="0.634" cy="0.634" r="0.634" fill="#94c0d4"/>
      </g>
    </g>
    <g id="Group_2371" data-name="Group 2371" transform="translate(227.704 260.014)">
      <g id="Group_2370" data-name="Group 2370">
        <circle id="Ellipse_77" data-name="Ellipse 77" cx="0.634" cy="0.634" r="0.634" fill="#94c0d4"/>
      </g>
    </g>
  </g>
</svg>
