<svg xmlns="http://www.w3.org/2000/svg" width="20.437" height="13.496" viewBox="0 0 20.437 13.496">
  <g id="motion_1_" data-name="motion (1)" transform="translate(0 -89)">
    <g id="Group_2373" data-name="Group 2373" transform="translate(0 89)">
      <path id="Path_955" data-name="Path 955" d="M13.771,89A6.578,6.578,0,0,0,9.8,90.333H3.992a.808.808,0,0,0,0,1.616H8.264a6.757,6.757,0,0,0-1.111,2.99H2.395a.808.808,0,0,0,0,1.616H7.153a6.757,6.757,0,0,0,1.111,2.99H.8a.808.808,0,0,0,0,1.616H9.7a.792.792,0,0,0,.09-.005,6.6,6.6,0,0,0,6.748.732.812.812,0,0,0,.395-1.071.794.794,0,0,0-1.058-.4,4.976,4.976,0,0,1-2.1.461,5.112,5.112,0,1,1,4.621-3.019.812.812,0,0,0,.4,1.069.794.794,0,0,0,1.056-.4A6.765,6.765,0,0,0,13.771,89Z" transform="translate(0 -89)" fill="#94c0d4"/>
    </g>
  </g>
</svg>
