<svg xmlns="http://www.w3.org/2000/svg" width="17.707" height="17.6" viewBox="0 0 17.707 17.6">
  <g id="gear_4_" data-name="gear (4)" transform="translate(0 -1.544)">
    <g id="Group_2375" data-name="Group 2375" transform="translate(0 1.544)">
      <g id="Group_2374" data-name="Group 2374" transform="translate(0 0)">
        <path id="Path_956" data-name="Path 956" d="M3.75,16.184l-.789-.789.7-1.965-.678-1.635L1.1,10.9V9.786l1.885-.892.678-1.635-.7-1.965L3.75,4.5l1.966.7,1.633-.676.894-1.887H9.358l.894,1.887,1.633.676,1.966-.7.789.789-.631,1.764,1.036.371.865-2.421L14.136,3.235l-2.223.794-.85-.352-1.01-2.133H7.546L6.536,3.677l-.85.352L3.464,3.235,1.691,5.009l.794,2.221-.353.851L0,9.09V11.6l2.131,1.009.353.851L1.691,15.68l1.773,1.774,2.421-.865-.37-1.036Z" transform="translate(0 -1.544)" fill="#94c0d4"/>
        <path id="Path_957" data-name="Path 957" d="M214.116,198.714l1.041-1.422-1.151-1.995-1.752.191-.574-.33-.711-1.614h-2.3l-.712,1.613-.574.33-1.752-.191-1.15,1.994,1.041,1.423v.66L204.48,200.8l1.151,1.993,1.752-.191.574.33.711,1.614h2.3l.711-1.613.574-.33,1.752.191,1.151-1.993-1.041-1.425Zm-.27,2.156-.433.751-1.4-.152-1.2.689-.564,1.286h-.866l-.567-1.286-1.2-.691-1.4.152-.433-.751.829-1.133v-1.383l-.829-1.133.433-.751,1.4.152,1.2-.691.567-1.286h.867l.567,1.286,1.2.691,1.4-.152.433.751-.831,1.133v1.383Z" transform="translate(-197.451 -186.944)" fill="#94c0d4"/>
        <path id="Path_958" data-name="Path 958" d="M297.976,289.544a2.2,2.2,0,1,0,2.2,2.2A2.2,2.2,0,0,0,297.976,289.544Zm0,3.3a1.1,1.1,0,1,1,1.1-1.1A1.1,1.1,0,0,1,297.976,292.844Z" transform="translate(-285.609 -279.644)" fill="#94c0d4"/>
        <path id="Path_959" data-name="Path 959" d="M129.1,161.182a3.287,3.287,0,0,1,1.234-2.574l-.69-.857a4.4,4.4,0,0,0,.241,7.04l.63-.9A3.3,3.3,0,0,1,129.1,161.182Z" transform="translate(-123.599 -152.382)" fill="#94c0d4"/>
        <path id="Path_960" data-name="Path 960" d="M273.2,132.723a3.276,3.276,0,0,1,.825.264l.471-.993a4.395,4.395,0,0,0-1.1-.354Z" transform="translate(-263.809 -127.168)" fill="#94c0d4"/>
        <path id="Path_961" data-name="Path 961" d="M207.6,131.556a3.262,3.262,0,0,1,.91-.23l-.113-1.095a4.383,4.383,0,0,0-1.216.307Z" transform="translate(-200.062 -125.808)" fill="#94c0d4"/>
      </g>
    </g>
  </g>
</svg>
