<svg xmlns="http://www.w3.org/2000/svg" width="16.226" height="16.226" viewBox="0 0 16.226 16.226">
  <g id="divide" transform="translate(0.499 0.499)">
    <path id="Path_799" data-name="Path 799" d="M117.8,130.54a.473.473,0,0,1-.472-.472V123.14a.472.472,0,0,1,.945,0v6.927A.472.472,0,0,1,117.8,130.54Zm0,0" transform="translate(-113.812 -118.99)" fill="#94c0d4"/>
    <path id="Path_800" data-name="Path 800" d="M363.14,130.54a.472.472,0,0,1-.472-.472V123.14a.472.472,0,0,1,.945,0v6.927A.473.473,0,0,1,363.14,130.54Zm0,0" transform="translate(-351.905 -118.99)" fill="#94c0d4"/>
    <path id="Path_801" data-name="Path 801" d="M240.472,15.115a.473.473,0,0,1-.472-.472V.472a.472.472,0,0,1,.945,0v14.17A.473.473,0,0,1,240.472,15.115Zm0,0" transform="translate(-232.858 0.057)" fill="#94c0d4"/>
    <path id="Path_802" data-name="Path 802" d="M14.367,16.226H1.859A1.861,1.861,0,0,1,0,14.367V1.859A1.861,1.861,0,0,1,1.859,0H14.367a1.861,1.861,0,0,1,1.859,1.859V14.367A1.861,1.861,0,0,1,14.367,16.226ZM1.859,1.014a.846.846,0,0,0-.845.845V14.367a.846.846,0,0,0,.845.845H14.367a.846.846,0,0,0,.845-.845V1.859a.846.846,0,0,0-.845-.845Zm0,0" transform="translate(-0.499 -0.499)" fill="#94c0d4"/>
    <path id="Path_803" data-name="Path 803" d="M14.642,363.613H.472a.472.472,0,0,1,0-.945h14.17a.472.472,0,0,1,0,.945Zm0,0" transform="translate(0.057 -351.905)" fill="#94c0d4"/>
    <path id="Path_804" data-name="Path 804" d="M14.642,118.277H.472a.472.472,0,1,1,0-.945h14.17a.472.472,0,1,1,0,.945Zm0,0" transform="translate(0.057 -113.812)" fill="#94c0d4"/>
  </g>
</svg>
