<svg xmlns="http://www.w3.org/2000/svg" width="14.606" height="16.207" viewBox="0 0 14.606 16.207">
  <g id="_2" data-name="2" transform="translate(-1)">
    <path id="Path_1659" data-name="Path 1659" d="M15.084,16.207H2.913A1.887,1.887,0,0,1,1,14.35V1.857A1.887,1.887,0,0,1,2.913,0H13.693a.514.514,0,0,1,.522.506V2.7h.869a.514.514,0,0,1,.522.506V15.7A.514.514,0,0,1,15.084,16.207ZM2.043,3.511V14.35a.858.858,0,0,0,.869.844h11.65V3.714H2.913a1.94,1.94,0,0,1-.869-.2Zm.869-2.5a.858.858,0,0,0-.869.844.858.858,0,0,0,.869.844H13.172V1.013Z" fill="#94c0d4"/>
    <path id="Path_1660" data-name="Path 1660" d="M7.25,15.083a.5.5,0,0,1-.32-.116l-2-1.667a.5.5,0,0,1,0-.768l2-1.667a.5.5,0,1,1,.641.768L6.031,12.917,7.571,14.2a.5.5,0,0,1-.321.884Z" transform="translate(-1.112 -3.456)" fill="#94c0d4"/>
    <path id="Path_1661" data-name="Path 1661" d="M14.25,15.083a.5.5,0,0,1-.32-.884l1.539-1.283-1.539-1.283a.5.5,0,1,1,.641-.768l2,1.667a.5.5,0,0,1,0,.768l-2,1.667A.5.5,0,0,1,14.25,15.083Z" transform="translate(-3.782 -3.456)" fill="#94c0d4"/>
    <path id="Path_1662" data-name="Path 1662" d="M10.25,15.417a.5.5,0,0,1-.137-.019.5.5,0,0,1-.343-.618L11.1,10.113a.5.5,0,0,1,.961.275l-1.333,4.667a.5.5,0,0,1-.481.363Z" transform="translate(-2.614 -3.119)" fill="#94c0d4"/>
  </g>
</svg>
