<svg xmlns="http://www.w3.org/2000/svg" width="16.399" height="14.051" viewBox="0 0 16.399 14.051">
  <g id="line-chart" transform="translate(0 -36.652)">
    <g id="Group_2385" data-name="Group 2385" transform="translate(12.185 40.86)">
      <g id="Group_2384" data-name="Group 2384" transform="translate(0 0)">
        <rect id="Rectangle_385" data-name="Rectangle 385" width="2.404" height="1.084" transform="translate(0 1.788) rotate(-48.056)" fill="#94c0d4"/>
      </g>
    </g>
    <g id="Group_2387" data-name="Group 2387" transform="translate(8.378 41.422)">
      <g id="Group_2386" data-name="Group 2386" transform="translate(0 0)">
        <rect id="Rectangle_386" data-name="Rectangle 386" width="1.084" height="2.771" transform="translate(0 0.862) rotate(-52.68)" fill="#94c0d4"/>
      </g>
    </g>
    <g id="Group_2389" data-name="Group 2389" transform="translate(4.83 42.148)">
      <g id="Group_2388" data-name="Group 2388" transform="translate(0 0)">
        <rect id="Rectangle_387" data-name="Rectangle 387" width="3.113" height="1.084" transform="translate(0 2.655) rotate(-58.527)" fill="#94c0d4"/>
      </g>
    </g>
    <g id="Group_2391" data-name="Group 2391" transform="translate(6.123 40.138)">
      <g id="Group_2390" data-name="Group 2390">
        <path id="Path_965" data-name="Path 965" d="M192.708,145.48a1.555,1.555,0,0,0-1.553,1.553,1.508,1.508,0,0,0,.448,1.105.538.538,0,0,0,.04.036,1.643,1.643,0,0,0,1.065.411,1.532,1.532,0,0,0,1.523-1.272,1.056,1.056,0,0,0,.03-.282A1.555,1.555,0,0,0,192.708,145.48Zm.47,1.577a.542.542,0,0,0-.012.059.455.455,0,0,1-.457.386.573.573,0,0,1-.357-.148.427.427,0,0,1-.113-.321.47.47,0,0,1,.939,0C193.178,147.041,193.178,147.049,193.178,147.057Z" transform="translate(-191.155 -145.48)" fill="#94c0d4"/>
      </g>
    </g>
    <g id="Group_2393" data-name="Group 2393" transform="translate(3.07 44.291)">
      <g id="Group_2392" data-name="Group 2392">
        <path id="Path_966" data-name="Path 966" d="M98.446,275.559l-.026-.022a1.586,1.586,0,0,0-1.007-.372,1.553,1.553,0,1,0,1.553,1.553A1.6,1.6,0,0,0,98.446,275.559Zm-1.033,1.629a.47.47,0,0,1,0-.939.5.5,0,0,1,.315.123.525.525,0,0,1,.155.347A.47.47,0,0,1,97.413,277.188Z" transform="translate(-95.86 -275.165)" fill="#94c0d4"/>
      </g>
    </g>
    <g id="Group_2395" data-name="Group 2395" transform="translate(13.311 38.891)">
      <g id="Group_2394" data-name="Group 2394">
        <path id="Path_967" data-name="Path 967" d="M417.148,106.572h-.018a1.555,1.555,0,0,0-1.553,1.553,1.508,1.508,0,0,0,.423,1.08,1.11,1.11,0,0,0,.34.277,1.472,1.472,0,0,0,.772.214,1.532,1.532,0,0,0,1.523-1.272,1.069,1.069,0,0,0,.03-.281A1.584,1.584,0,0,0,417.148,106.572Zm.433,1.595c-.005.02-.009.039-.012.059a.455.455,0,0,1-.457.386.386.386,0,0,1-.219-.062c-.015-.009-.037-.02-.052-.028a.551.551,0,0,0-.05-.058.425.425,0,0,1-.13-.339.47.47,0,0,1,.461-.47.491.491,0,0,1,.46.487C417.582,108.151,417.582,108.159,417.582,108.167Z" transform="translate(-415.577 -106.572)" fill="#94c0d4"/>
      </g>
    </g>
    <g id="Group_2397" data-name="Group 2397" transform="translate(10.367 42.179)">
      <g id="Group_2396" data-name="Group 2396">
        <path id="Path_968" data-name="Path 968" d="M326.081,209.465l-.02-.014a1.493,1.493,0,0,0-.842-.253,1.572,1.572,0,0,0-1.519,1.223,1.385,1.385,0,0,0-.034.348,1.553,1.553,0,1,0,3.106,0A1.618,1.618,0,0,0,326.081,209.465Zm-.862,1.774a.47.47,0,0,1-.47-.47.754.754,0,0,1,0-.09.5.5,0,0,1,.467-.4.417.417,0,0,1,.232.065.559.559,0,0,1,.238.422A.47.47,0,0,1,325.219,211.239Z" transform="translate(-323.666 -209.198)" fill="#94c0d4"/>
      </g>
    </g>
    <g id="Group_2399" data-name="Group 2399" transform="translate(1.409 36.652)">
      <g id="Group_2398" data-name="Group 2398">
        <path id="Path_969" data-name="Path 969" d="M44.525,36.652a.542.542,0,0,0-.542.542V50.161a.542.542,0,1,0,1.084,0V37.194A.542.542,0,0,0,44.525,36.652Z" transform="translate(-43.983 -36.652)" fill="#94c0d4"/>
      </g>
    </g>
    <g id="Group_2401" data-name="Group 2401" transform="translate(0 48.211)">
      <g id="Group_2400" data-name="Group 2400">
        <path id="Path_970" data-name="Path 970" d="M15.821,397.533H.542a.542.542,0,0,0,0,1.084H15.821a.542.542,0,0,0,0-1.084Z" transform="translate(0 -397.533)" fill="#94c0d4"/>
      </g>
    </g>
  </g>
</svg>
