<svg xmlns="http://www.w3.org/2000/svg" width="15.852" height="18.379" viewBox="0 0 15.852 18.379">
  <g id="developer" transform="translate(0.25)">
    <path id="Path_1667" data-name="Path 1667" d="M8.006,8.011a4.006,4.006,0,1,1,4.006-4.006A4.01,4.01,0,0,1,8.006,8.011Zm0-6.81a2.8,2.8,0,1,0,2.8,2.8A2.807,2.807,0,0,0,8.006,1.2Z" transform="translate(-0.845)" fill="#94c0d4"/>
    <path id="Path_1668" data-name="Path 1668" d="M7.04,19.611H.351a.6.6,0,0,1-.6-.6v-3.2A3.81,3.81,0,0,1,3.555,12h7.21a3.784,3.784,0,0,1,2.968,1.419.6.6,0,0,1-.937.753,2.587,2.587,0,0,0-2.031-.969H3.555a2.607,2.607,0,0,0-2.6,2.6v2.6H7.04a.6.6,0,0,1,0,1.2Z" transform="translate(0 -2.386)" fill="#94c0d4"/>
    <path id="Path_1669" data-name="Path 1669" d="M16.441,20.711a.414.414,0,0,1-.1-.012.442.442,0,0,1-.332-.529l.883-3.828a.442.442,0,0,1,.861.2l-.883,3.828A.441.441,0,0,1,16.441,20.711Z" transform="translate(-5.109 -2.332)" fill="#94c0d4"/>
    <path id="Path_1670" data-name="Path 1670" d="M20.442,20.534a.442.442,0,0,1-.3-.77l1.108-1-1.108-1a.442.442,0,1,1,.591-.657l1.472,1.325a.443.443,0,0,1,0,.657l-1.472,1.325a.441.441,0,0,1-.3.113Z" transform="translate(-6.754 -2.744)" fill="#94c0d4"/>
    <path id="Path_1671" data-name="Path 1671" d="M12.914,20.534a.441.441,0,0,1-.3-.113L11.146,19.1a.443.443,0,0,1,0-.657l1.472-1.325a.442.442,0,1,1,.591.657l-1.108,1,1.108,1a.442.442,0,0,1-.3.77Z" transform="translate(-3.054 -2.744)" fill="#94c0d4"/>
  </g>
</svg>
