<svg xmlns="http://www.w3.org/2000/svg" width="13.775" height="16.438" viewBox="0 0 13.775 16.438">
  <g id="user_2_" data-name="user (2)" transform="translate(0 0)">
    <path id="Path_1672" data-name="Path 1672" d="M91.021,7.918a3.875,3.875,0,0,0,2.821-1.16,3.816,3.816,0,0,0,1.169-2.8,3.817,3.817,0,0,0-1.169-2.8,4.01,4.01,0,0,0-5.642,0,3.816,3.816,0,0,0-1.169,2.8,3.816,3.816,0,0,0,1.169,2.8A3.877,3.877,0,0,0,91.021,7.918ZM88.887,1.841a3.034,3.034,0,0,1,4.269,0,2.851,2.851,0,0,1,.884,2.118,2.851,2.851,0,0,1-.884,2.118,3.034,3.034,0,0,1-4.269,0A2.851,2.851,0,0,1,88,3.959a2.851,2.851,0,0,1,.885-2.118Zm0,0" transform="translate(-84.238)" fill="#94c0d4"/>
    <path id="Path_1673" data-name="Path 1673" d="M13.741,252.016a9.738,9.738,0,0,0-.134-1.039,8.152,8.152,0,0,0-.257-1.044,5.146,5.146,0,0,0-.431-.974,3.673,3.673,0,0,0-.65-.844,2.869,2.869,0,0,0-.934-.584,3.241,3.241,0,0,0-1.192-.215,1.213,1.213,0,0,0-.646.273c-.194.126-.42.271-.673.432a3.867,3.867,0,0,1-.871.382,3.4,3.4,0,0,1-2.131,0,3.855,3.855,0,0,1-.871-.382c-.251-.159-.477-.3-.674-.432a1.212,1.212,0,0,0-.646-.273,3.237,3.237,0,0,0-1.192.215,2.866,2.866,0,0,0-.934.584,3.674,3.674,0,0,0-.65.843,5.157,5.157,0,0,0-.431.974,8.172,8.172,0,0,0-.256,1.044,9.672,9.672,0,0,0-.134,1.039c-.022.314-.033.641-.033.971a2.723,2.723,0,0,0,.814,2.065,2.938,2.938,0,0,0,2.1.762h7.95a2.939,2.939,0,0,0,2.1-.762,2.722,2.722,0,0,0,.814-2.065c0-.331-.011-.658-.033-.971Zm-1.448,2.338a1.979,1.979,0,0,1-1.431.5H2.912a1.979,1.979,0,0,1-1.431-.5,1.778,1.778,0,0,1-.514-1.367c0-.308.01-.612.031-.9a8.723,8.723,0,0,1,.121-.935,7.208,7.208,0,0,1,.226-.921,4.2,4.2,0,0,1,.351-.792,2.723,2.723,0,0,1,.478-.623,1.9,1.9,0,0,1,.621-.385,2.235,2.235,0,0,1,.762-.146c.034.018.094.052.192.116.2.129.428.276.682.437a4.8,4.8,0,0,0,1.094.486,4.368,4.368,0,0,0,2.726,0,4.809,4.809,0,0,0,1.094-.487c.259-.165.482-.308.681-.437.1-.063.158-.1.192-.116a2.236,2.236,0,0,1,.762.146,1.906,1.906,0,0,1,.621.385,2.716,2.716,0,0,1,.478.624,4.184,4.184,0,0,1,.351.792,7.191,7.191,0,0,1,.226.921,8.8,8.8,0,0,1,.121.936h0c.021.291.031.595.031.9a1.778,1.778,0,0,1-.514,1.367Zm0,0" transform="translate(0 -239.376)" fill="#94c0d4"/>
  </g>
</svg>
