<svg xmlns="http://www.w3.org/2000/svg" width="15.221" height="15.221" viewBox="0 0 15.221 15.221">
  <g id="menu_3_" data-name="menu (3)" transform="translate(-37 28)">
    <g id="regular" transform="translate(37 -28)">
      <g id="Group_2906" data-name="Group 2906">
        <path id="Path_1688" data-name="Path 1688" d="M11.866,11.074H7.11A1.111,1.111,0,0,1,6,9.964V7.11A1.111,1.111,0,0,1,7.11,6h4.756a1.111,1.111,0,0,1,1.11,1.11V9.964A1.111,1.111,0,0,1,11.866,11.074ZM7.11,6.951a.159.159,0,0,0-.159.159V9.964a.159.159,0,0,0,.159.159h4.756a.159.159,0,0,0,.159-.159V7.11a.159.159,0,0,0-.159-.159Z" transform="translate(-6 -6)" fill="#94c0d4"/>
      </g>
      <g id="Group_2907" data-name="Group 2907" transform="translate(0 6.342)">
        <path id="Path_1689" data-name="Path 1689" d="M11.866,24.879H7.11A1.111,1.111,0,0,1,6,23.769V17.11A1.111,1.111,0,0,1,7.11,16h4.756a1.111,1.111,0,0,1,1.11,1.11v6.659A1.111,1.111,0,0,1,11.866,24.879ZM7.11,16.951a.159.159,0,0,0-.159.159v6.659a.159.159,0,0,0,.159.159h4.756a.159.159,0,0,0,.159-.159V17.11a.159.159,0,0,0-.159-.159Z" transform="translate(-6 -16)" fill="#94c0d4"/>
      </g>
      <g id="Group_2908" data-name="Group 2908" transform="translate(8.245 10.147)">
        <path id="Path_1690" data-name="Path 1690" d="M24.866,27.074H20.11A1.111,1.111,0,0,1,19,25.964V23.11A1.111,1.111,0,0,1,20.11,22h4.756a1.111,1.111,0,0,1,1.11,1.11v2.854A1.111,1.111,0,0,1,24.866,27.074ZM20.11,22.951a.159.159,0,0,0-.159.159v2.854a.159.159,0,0,0,.159.159h4.756a.159.159,0,0,0,.159-.159V23.11a.159.159,0,0,0-.159-.159Z" transform="translate(-19 -22)" fill="#94c0d4"/>
      </g>
      <g id="Group_2909" data-name="Group 2909" transform="translate(8.245)">
        <path id="Path_1691" data-name="Path 1691" d="M24.866,14.879H20.11A1.111,1.111,0,0,1,19,13.769V7.11A1.111,1.111,0,0,1,20.11,6h4.756a1.111,1.111,0,0,1,1.11,1.11v.753h-.951V7.11a.159.159,0,0,0-.159-.159H20.11a.159.159,0,0,0-.159.159v6.659a.159.159,0,0,0,.159.159h4.756a.159.159,0,0,0,.159-.159V9.132h.951v4.637A1.111,1.111,0,0,1,24.866,14.879Z" transform="translate(-19 -6)" fill="#94c0d4"/>
      </g>
    </g>
  </g>
</svg>
