<svg xmlns="http://www.w3.org/2000/svg" width="14.91" height="14.288" viewBox="0 0 14.91 14.288">
  <g id="adjust_1_" data-name="adjust (1)" transform="translate(0 -10.667)">
    <g id="Group_2337" data-name="Group 2337" transform="translate(0 20.607)">
      <g id="Group_2336" data-name="Group 2336">
        <path id="Path_936" data-name="Path 936" d="M14.288,353.553H12.634a2.16,2.16,0,0,0-4.146,0H.621a.621.621,0,0,0,0,1.242H8.488a2.16,2.16,0,0,0,4.146,0h1.654a.621.621,0,0,0,0-1.242Zm-3.727,1.553a.932.932,0,1,1,.932-.932A.933.933,0,0,1,10.561,355.106Z" transform="translate(0 -352)" fill="#94c0d4"/>
      </g>
    </g>
    <g id="Group_2339" data-name="Group 2339" transform="translate(0 10.667)">
      <g id="Group_2338" data-name="Group 2338">
        <path id="Path_937" data-name="Path 937" d="M14.288,12.22H12.634a2.16,2.16,0,0,0-4.146,0H.621a.621.621,0,1,0,0,1.242H8.488a2.16,2.16,0,0,0,4.146,0h1.654a.621.621,0,0,0,0-1.242Zm-3.727,1.553a.932.932,0,1,1,.932-.932A.933.933,0,0,1,10.561,13.773Z" transform="translate(0 -10.667)" fill="#94c0d4"/>
      </g>
    </g>
    <g id="Group_2341" data-name="Group 2341" transform="translate(0 15.637)">
      <g id="Group_2340" data-name="Group 2340">
        <path id="Path_938" data-name="Path 938" d="M14.288,182.887H6.422a2.16,2.16,0,0,0-4.146,0H.621a.621.621,0,0,0,0,1.242H2.276a2.16,2.16,0,0,0,4.146,0h7.867a.621.621,0,0,0,0-1.242Zm-9.94,1.553a.932.932,0,1,1,.932-.932A.933.933,0,0,1,4.349,184.44Z" transform="translate(0 -181.334)" fill="#94c0d4"/>
      </g>
    </g>
  </g>
</svg>
