<svg width="22" height="14" viewBox="0 0 22 14" fill="none" xmlns="http://www.w3.org/2000/svg">
<g id="arrow-growth">
<path id="Path" d="M20.0024 0.997803H15.0024C14.4502 0.997803 14.0024 1.44552 14.0024 1.9978C14.0024 2.55009 14.4502 2.9978 15.0024 2.9978H17.5884L12.0024 8.58374L8.70944 5.2908C8.52196 5.10322 8.26762 4.99783 8.00241 4.99783C7.7372 4.99783 7.48286 5.10322 7.29538 5.2908L1.29538 11.2908C1.04014 11.5429 0.93948 11.9123 1.03161 12.259C1.12373 12.6057 1.39452 12.8765 1.74122 12.9686C2.08791 13.0607 2.45739 12.9601 2.70944 12.7048L8.00244 7.41186L11.2954 10.7049C11.4829 10.8924 11.7373 10.9978 12.0025 10.9978C12.2677 10.9978 12.522 10.8924 12.7095 10.7049L19.0024 4.41186V6.9978C19.0024 7.55009 19.4502 7.9978 20.0024 7.9978C20.5547 7.9978 21.0024 7.55009 21.0024 6.9978V1.9978C21.0024 1.73254 20.8973 1.4781 20.7097 1.29053C20.5221 1.10296 20.2677 0.997652 20.0024 0.997803Z" fill="#16B1FF"/>
</g>
</svg>
