<svg width="20" height="16" viewBox="0 0 20 16" fill="none" xmlns="http://www.w3.org/2000/svg">
<g id="card-atm">
<path id="Oval" d="M14.4215 11.8684C15.6423 11.8684 16.632 10.8788 16.632 9.65791C16.632 8.43707 15.6423 7.44739 14.4215 7.44739C13.2006 7.44739 12.2109 8.43707 12.2109 9.65791C12.2109 10.8788 13.2006 11.8684 14.4215 11.8684Z" fill="#FFB400"/>
<path id="Path" d="M12.2103 9.65791C12.2103 9.10111 12.4232 8.59845 12.763 8.20975C12.3578 7.74624 11.7691 7.44739 11.1051 7.44739C9.88424 7.44739 8.89453 8.4371 8.89453 9.65791C8.89453 10.8787 9.88424 11.8684 11.1051 11.8684C11.7691 11.8684 12.3578 11.5696 12.763 11.1061C12.4232 10.7174 12.2103 10.2147 12.2103 9.65791Z" fill="#FFEAB8"/>
<path id="Shape" d="M17.7369 0.815796H2.26326C1.04244 0.815796 0.0527344 1.8055 0.0527344 3.02632V12.9737C0.0527344 14.1945 1.04244 15.1842 2.26326 15.1842H17.7369C18.9578 15.1842 19.9475 14.1945 19.9475 12.9737V3.02632C19.9475 1.8055 18.9578 0.815796 17.7369 0.815796ZM14.4212 11.8684C13.7571 11.8684 13.1684 11.5696 12.7633 11.1061C12.3581 11.5696 11.7694 11.8684 11.1054 11.8684C9.88455 11.8684 8.89484 10.8787 8.89484 9.6579C8.89484 8.43708 9.88455 7.44737 11.1054 7.44737C11.7694 7.44737 12.3581 7.74623 12.7633 8.20974C13.1684 7.74623 13.7571 7.44737 14.4212 7.44737C15.642 7.44737 16.6317 8.43708 16.6317 9.6579C16.6317 10.8787 15.642 11.8684 14.4212 11.8684Z" fill="#FFCF5C"/>
</g>
</svg>
