<svg width="20" height="16" viewBox="0 0 20 16" fill="none" xmlns="http://www.w3.org/2000/svg">
<g id="credit-card">
<path id="Rectangle" d="M20 4.5H0V6.5H20V4.5Z" fill="#D0F0B8"/>
<path id="Shape" d="M17 0.5H3C1.34515 0.50482 0.00482 1.84515 0 3.5V4.5H20V3.5C19.9952 1.84515 18.6549 0.50482 17 0.5ZM0 12.5C0.00488 14.1549 1.34515 15.4951 3 15.5H17C18.6549 15.4951 19.9951 14.1549 20 12.5V6.5H0V12.5Z" fill="#A7E37A"/>
<path id="Path" d="M8 10.5H5C4.44772 10.5 4 10.0523 4 9.5C4 8.94771 4.44772 8.5 5 8.5H8C8.55229 8.5 9 8.94771 9 9.5C9 10.0523 8.55229 10.5 8 10.5Z" fill="#56CA00"/>
</g>
</svg>
