<svg width="20" height="22" viewBox="0 0 20 22" fill="none" xmlns="http://www.w3.org/2000/svg">
<g id="paypal">
<path id="Shape" d="M6.86172 18.9399C6.78463 19.4256 6.36585 19.7832 5.87408 19.7832H2.04233C1.19559 19.785 0.507696 19.1001 0.505863 18.2533C0.505686 18.1678 0.512656 18.0824 0.526716 17.998L3.11656 1.59174C3.26381 0.676319 4.05265 0.00240896 4.97984 -6.10352e-05H11.1937C13.7542 -6.10352e-05 15.6019 0.620059 16.6859 1.84271C17.7325 3.04856 18.1346 4.68461 17.766 6.23822C17.7445 6.37299 17.723 6.50873 17.6908 6.65622C16.8675 10.874 14.0355 13.1132 9.50523 13.1132H7.78648L6.86172 18.9399Z" fill="#FFA2A5"/>
<path id="Path" d="M18.4165 6.10437C18.2504 5.9184 18.0678 5.7486 17.8715 5.59637C17.8496 5.81097 17.8166 6.02533 17.7661 6.23815C17.7446 6.37292 17.7231 6.50866 17.6909 6.65612C16.8677 10.8739 14.0356 13.1132 9.50537 13.1132H7.78663L6.86189 18.9399C6.7848 19.4256 6.36598 19.7831 5.87422 19.7831H4.70655L4.62452 20.3036C4.61256 20.3793 4.60645 20.4558 4.60645 20.5325C4.60615 21.3426 5.26264 21.9996 6.07276 21.9999H9.30714C10.1728 22.0072 10.9153 21.384 11.0582 20.5302L11.6988 16.4989L11.7095 16.4443H12.0084C16.0406 16.4443 18.5591 14.451 19.2935 10.6815C19.7479 9.10327 19.4221 7.40296 18.4165 6.10437Z" fill="#FF4C51"/>
</g>
</svg>
