<svg width="20" height="18" viewBox="0 0 20 18" fill="none" xmlns="http://www.w3.org/2000/svg">
<g id="wallet">
<path id="Path" d="M0 2.33331C0 3.56061 0.99491 4.55553 2.22221 4.55554H2.22222H17.7778C19.0051 4.55554 20 5.55046 20 6.77776V15.6667C20 16.894 19.0051 17.8889 17.7778 17.8889H2.22222C0.99492 17.8889 0 16.894 0 15.6667V2.33331Z" fill="#E0CFFE"/>
<path id="Path_2" d="M2.22223 4.55554H15.5555V2.11108C15.5555 1.00653 14.6602 0.111084 13.5555 0.111084H2C0.89545 0.111084 0 1.00653 0 2.11108V2.33331C0 3.56061 0.99493 4.55554 2.22223 4.55554Z" fill="#B992FE"/>
<path id="Path_3" d="M19.9996 14.0001H17.118C15.6573 14.0266 14.379 13.0232 14.0577 11.598C13.7302 9.97114 14.7835 8.38676 16.4104 8.05923C16.6044 8.02017 16.8017 8.00038 16.9996 8.00012H19.9996V14.0001Z" fill="#9155FD"/>
</g>
</svg>
