<svg xmlns="http://www.w3.org/2000/svg" width="19.9" height="17.734" viewBox="0 0 19.9 17.734">
  <g id="calender_icon" transform="translate(0 -20.9)">
    <g id="Group_2869" data-name="Group 2869" transform="translate(0 20.9)">
      <g id="Group_2868" data-name="Group 2868" transform="translate(0 0)">
        <path id="Path_1648" data-name="Path 1648" d="M17.837,22.408H16.588v-.99a.518.518,0,0,0-1.037,0v.99h-5.08v-.99a.518.518,0,0,0-1.037,0v.99H4.3v-.99a.518.518,0,0,0-1.037,0v.99h-1.2A2.1,2.1,0,0,0,0,24.508V36.56a2.069,2.069,0,0,0,2.068,2.073H17.832A2.067,2.067,0,0,0,19.9,36.565V24.508A2.09,2.09,0,0,0,17.837,22.408ZM18.869,36.56A1.034,1.034,0,0,1,17.842,37.6H2.068a1.031,1.031,0,0,1-1.032-1.032V24.508a1.055,1.055,0,0,1,1.032-1.063h1.2V24.2a.518.518,0,0,0,1.037,0v-.752H9.434V24.2a.518.518,0,0,0,1.037,0v-.752h5.08V24.2a.518.518,0,0,0,1.037,0v-.752h1.249a1.054,1.054,0,0,1,1.032,1.063Z" transform="translate(0 -20.9)"/>
      </g>
    </g>
    <g id="Group_2871" data-name="Group 2871" transform="translate(7.164 26.815)">
      <g id="Group_2870" data-name="Group 2870">
        <path id="Path_1649" data-name="Path 1649" d="M139.626,135h-.907a.518.518,0,1,0,0,1.037h.907a.518.518,0,1,0,0-1.037Z" transform="translate(-138.2 -135)"/>
      </g>
    </g>
    <g id="Group_2873" data-name="Group 2873" transform="translate(10.772 26.815)">
      <g id="Group_2872" data-name="Group 2872">
        <path id="Path_1650" data-name="Path 1650" d="M209.226,135h-.907a.518.518,0,1,0,0,1.037h.907a.518.518,0,0,0,0-1.037Z" transform="translate(-207.8 -135)"/>
      </g>
    </g>
    <g id="Group_2875" data-name="Group 2875" transform="translate(14.411 26.815)">
      <g id="Group_2874" data-name="Group 2874">
        <path id="Path_1651" data-name="Path 1651" d="M279.426,135h-.907a.518.518,0,1,0,0,1.037h.907a.518.518,0,0,0,0-1.037Z" transform="translate(-278 -135)"/>
      </g>
    </g>
    <g id="Group_2877" data-name="Group 2877" transform="translate(7.164 30.391)">
      <g id="Group_2876" data-name="Group 2876" transform="translate(0 0)">
        <path id="Path_1652" data-name="Path 1652" d="M139.626,204h-.907a.518.518,0,0,0,0,1.037h.907a.518.518,0,1,0,0-1.037Z" transform="translate(-138.2 -204)"/>
      </g>
    </g>
    <g id="Group_2879" data-name="Group 2879" transform="translate(3.525 30.391)">
      <g id="Group_2878" data-name="Group 2878" transform="translate(0 0)">
        <path id="Path_1653" data-name="Path 1653" d="M69.431,204h-.912a.518.518,0,0,0,0,1.037h.907A.518.518,0,0,0,69.431,204Z" transform="translate(-68 -204)"/>
      </g>
    </g>
    <g id="Group_2881" data-name="Group 2881" transform="translate(10.772 30.391)">
      <g id="Group_2880" data-name="Group 2880" transform="translate(0 0)">
        <path id="Path_1654" data-name="Path 1654" d="M209.226,204h-.907a.518.518,0,0,0,0,1.037h.907a.518.518,0,1,0,0-1.037Z" transform="translate(-207.8 -204)"/>
      </g>
    </g>
    <g id="Group_2883" data-name="Group 2883" transform="translate(14.411 30.391)">
      <g id="Group_2882" data-name="Group 2882" transform="translate(0 0)">
        <path id="Path_1655" data-name="Path 1655" d="M279.426,204h-.907a.518.518,0,1,0,0,1.037h.907a.518.518,0,0,0,0-1.037Z" transform="translate(-278 -204)"/>
      </g>
    </g>
    <g id="Group_2885" data-name="Group 2885" transform="translate(7.164 33.916)">
      <g id="Group_2884" data-name="Group 2884" transform="translate(0 0)">
        <path id="Path_1656" data-name="Path 1656" d="M139.626,272h-.907a.518.518,0,0,0,0,1.037h.907a.518.518,0,1,0,0-1.037Z" transform="translate(-138.2 -272)"/>
      </g>
    </g>
    <g id="Group_2887" data-name="Group 2887" transform="translate(3.525 33.916)">
      <g id="Group_2886" data-name="Group 2886" transform="translate(0 0)">
        <path id="Path_1657" data-name="Path 1657" d="M69.431,272h-.912a.518.518,0,0,0,0,1.037h.907A.518.518,0,0,0,69.431,272Z" transform="translate(-68 -272)"/>
      </g>
    </g>
    <g id="Group_2889" data-name="Group 2889" transform="translate(10.772 33.916)">
      <g id="Group_2888" data-name="Group 2888" transform="translate(0 0)">
        <path id="Path_1658" data-name="Path 1658" d="M209.226,272h-.907a.518.518,0,1,0,0,1.037h.907a.518.518,0,0,0,0-1.037Z" transform="translate(-207.8 -272)"/>
      </g>
    </g>
  </g>
</svg>
