<svg id="msg" xmlns="http://www.w3.org/2000/svg" width="18.88" height="18.88" viewBox="0 0 18.88 18.88">
  <g id="Group_2289" data-name="Group 2289">
    <g id="Group_2288" data-name="Group 2288">
      <path id="Path_899" data-name="Path 899" d="M12.98,0H2.36A2.362,2.362,0,0,0,0,2.36v11.8a.589.589,0,0,0,.34.535.6.6,0,0,0,.25.055.59.59,0,0,0,.378-.137L4.344,11.8H12.98a2.362,2.362,0,0,0,2.36-2.36V2.36A2.362,2.362,0,0,0,12.98,0Zm1.18,9.44a1.181,1.181,0,0,1-1.18,1.18H4.13a.589.589,0,0,0-.378.137L1.18,12.9V2.36A1.181,1.181,0,0,1,2.36,1.18H12.98a1.181,1.181,0,0,1,1.18,1.18Z"/>
    </g>
  </g>
  <g id="Group_2291" data-name="Group 2291" transform="translate(4.72 4.72)">
    <g id="Group_2290" data-name="Group 2290">
      <path id="Path_900" data-name="Path 900" d="M139.8,128a.59.59,0,1,0,0,1.18,1.181,1.181,0,0,1,1.18,1.18v9.982l-1.992-1.593a.6.6,0,0,0-.368-.129h-8.26a1.181,1.181,0,0,1-1.18-1.18v-.59a.59.59,0,1,0-1.18,0v.59a2.362,2.362,0,0,0,2.36,2.36h8.052l2.788,2.231a.59.59,0,0,0,.959-.461V130.36A2.362,2.362,0,0,0,139.8,128Z" transform="translate(-128 -128)"/>
    </g>
  </g>
</svg>
