<svg width="71" height="70" viewBox="0 0 71 70" fill="none" xmlns="http://www.w3.org/2000/svg">
<path opacity="0.2" fill-rule="evenodd" clip-rule="evenodd" d="M49.2623 38.3473L44.1107 32.1621C44.3076 35.952 43.3724 40.3652 40.4849 45.4019L45.4068 49.3394C45.5818 49.4784 45.7894 49.5704 46.01 49.6067C46.2305 49.643 46.4566 49.6224 46.6669 49.5468C46.8773 49.4712 47.0648 49.3432 47.2118 49.1748C47.3588 49.0065 47.4603 48.8034 47.5068 48.5848L49.5248 39.4629C49.5734 39.2695 49.575 39.0672 49.5293 38.8731C49.4836 38.679 49.3921 38.4987 49.2623 38.3473ZM21.306 38.4457L26.4576 32.277C26.2607 36.0668 27.1959 40.4801 30.0834 45.5004L25.1615 49.4379C24.9876 49.5769 24.7812 49.6693 24.5617 49.7065C24.3422 49.7437 24.1169 49.7245 23.9069 49.6507C23.6969 49.5769 23.5091 49.4509 23.3612 49.2845C23.2133 49.1181 23.1102 48.9168 23.0615 48.6996L21.0435 39.5613C20.9949 39.3679 20.9933 39.1657 21.039 38.9716C21.0847 38.7775 21.1763 38.5971 21.306 38.4457Z" fill="#9055FD"/>
<path fill-rule="evenodd" clip-rule="evenodd" d="M33.8811 16.4735C34.2896 16.136 34.8031 15.9512 35.3333 15.9512C35.8651 15.9512 36.38 16.1371 36.7891 16.4766C38.3981 17.7867 41.8808 21.0357 43.8053 26.0381C44.4659 27.7554 44.9381 29.6673 45.0933 31.7625L50.1251 37.8008C50.3563 38.0724 50.5195 38.3951 50.6012 38.7424C50.6822 39.0868 50.6808 39.4453 50.597 39.7889L48.5817 48.9151L48.581 48.9182C48.4952 49.3009 48.3135 49.6555 48.0529 49.9487C47.7924 50.2418 47.4615 50.4639 47.0915 50.5939C46.7215 50.724 46.3245 50.7579 45.9378 50.6923C45.5511 50.6267 45.1875 50.4638 44.881 50.219L44.8806 50.2186L40.2326 46.5002H30.4341L25.7862 50.2186L25.7857 50.219C25.4793 50.4638 25.1156 50.6267 24.729 50.6923C24.3423 50.7579 23.9453 50.724 23.5752 50.5939C23.2052 50.4639 22.8744 50.2418 22.6138 49.9487C22.3532 49.6555 22.1715 49.3009 22.0857 48.9182L22.085 48.9151L20.0697 39.7889C19.986 39.4453 19.9846 39.0868 20.0656 38.7424C20.1473 38.395 20.3107 38.072 20.542 37.8004L25.4767 31.8912C25.6193 29.7424 26.1008 27.7842 26.7825 26.029C28.726 21.0254 32.2534 17.777 33.8811 16.4735ZM43.1238 32.3076C43.1125 32.2387 43.1086 32.169 43.1118 32.0996C42.9861 30.1202 42.5469 28.3374 41.9387 26.7563C40.1899 22.2106 36.9998 19.2266 35.5224 18.0243L35.5125 18.0163L35.5126 18.0162C35.4623 17.9742 35.3988 17.9512 35.3333 17.9512C35.2678 17.9512 35.2043 17.9742 35.154 18.0162L35.1377 18.0295C33.645 19.2236 30.4124 22.2074 28.6468 26.7531C28.0147 28.3804 27.5649 30.2219 27.4576 32.2718C27.4578 32.3084 27.456 32.345 27.4522 32.3815C27.2924 35.8411 28.1096 39.8898 30.6664 44.5002H39.9943C42.5166 39.8569 43.3045 35.7836 43.1238 32.3076ZM48.5925 39.0857L45.0856 34.8775C44.8435 38.0045 43.8822 41.4702 41.8649 45.2448L46.1295 48.6565C46.1709 48.6896 46.22 48.7116 46.2723 48.7204C46.3245 48.7293 46.3782 48.7247 46.4282 48.7071C46.4782 48.6896 46.5229 48.6596 46.5581 48.6199C46.5931 48.5806 46.6176 48.533 46.6293 48.4817L46.6295 48.4807L48.6468 39.3455C48.6488 39.3361 48.6511 39.3266 48.6534 39.3172C48.6631 39.2789 48.6634 39.2389 48.6543 39.2004C48.6453 39.162 48.6272 39.1263 48.6015 39.0963L48.5924 39.0858L48.5925 39.0857ZM25.5084 34.9734L22.0736 39.0865L22.0654 39.0964L22.0653 39.0963C22.0396 39.1263 22.0215 39.162 22.0124 39.2004C22.0034 39.2389 22.0037 39.2789 22.0133 39.3172C22.0157 39.3266 22.0179 39.3361 22.02 39.3455L24.0373 48.4807L24.0375 48.4817C24.0492 48.533 24.0737 48.5806 24.1086 48.6199C24.1439 48.6596 24.1886 48.6896 24.2386 48.7071C24.2886 48.7247 24.3422 48.7293 24.3945 48.7204C24.4467 48.7116 24.4959 48.6896 24.5373 48.6565L28.796 45.2495C26.7589 41.5131 25.7736 38.0779 25.5084 34.9734ZM31.7084 50.7502C31.7084 50.1979 32.1561 49.7502 32.7084 49.7502H37.9584C38.5107 49.7502 38.9584 50.1979 38.9584 50.7502C38.9584 51.3025 38.5107 51.7502 37.9584 51.7502H32.7084C32.1561 51.7502 31.7084 51.3025 31.7084 50.7502ZM37.3021 29.7502C37.3021 30.8375 36.4207 31.719 35.3334 31.719C34.2461 31.719 33.3646 30.8375 33.3646 29.7502C33.3646 28.6629 34.2461 27.7815 35.3334 27.7815C36.4207 27.7815 37.3021 28.6629 37.3021 29.7502Z" fill="#9055FD"/>
<rect x="0.833984" y="0.5" width="69" height="69" rx="34.5" stroke="#9055FD" stroke-dasharray="4 4"/>
</svg>
