<svg width="71" height="70" viewBox="0 0 71 70" fill="none" xmlns="http://www.w3.org/2000/svg">
<path opacity="0.2" d="M49.1707 19.89L18.5894 28.5033C18.3291 28.5745 18.097 28.7242 17.9249 28.932C17.7527 29.1398 17.6487 29.3956 17.6272 29.6647C17.6057 29.9337 17.6676 30.2028 17.8046 30.4353C17.9415 30.6679 18.1468 30.8526 18.3925 30.9642L32.4363 37.6088C32.7114 37.7362 32.9323 37.9571 33.0597 38.2322L39.7043 52.2759C39.8159 52.5216 40.0006 52.7269 40.2331 52.8639C40.4657 53.0008 40.7348 53.0628 41.0038 53.0412C41.2728 53.0197 41.5287 52.9158 41.7365 52.7436C41.9443 52.5714 42.094 52.3394 42.1652 52.0791L50.7785 21.4978C50.8437 21.2747 50.8478 21.038 50.7902 20.8128C50.7325 20.5875 50.6154 20.3819 50.451 20.2175C50.2866 20.0531 50.081 19.9359 49.8557 19.8783C49.6304 19.8207 49.3938 19.8247 49.1707 19.89Z" fill="#9055FD"/>
<path fill-rule="evenodd" clip-rule="evenodd" d="M50.1035 18.9095C49.7063 18.8079 49.2892 18.8145 48.8954 18.9286L18.3257 27.5387L18.3215 27.5398C17.8645 27.6657 17.4572 27.929 17.1548 28.294C16.8514 28.6602 16.6683 29.1109 16.6304 29.5849C16.5925 30.0589 16.7016 30.533 16.9429 30.9428C17.1827 31.35 17.5415 31.6739 17.9708 31.871L32.0086 38.5127L32.0086 38.5127L32.0161 38.5162C32.0762 38.544 32.1245 38.5923 32.1523 38.6524L32.1523 38.6524L32.1558 38.6599L38.7975 52.6978C38.9946 53.1271 39.3185 53.4858 39.7257 53.7256C40.1354 53.9669 40.6096 54.076 41.0836 54.0381C41.5576 54.0001 42.0083 53.817 42.3745 53.5137C42.7395 53.2113 43.0028 52.804 43.1286 52.347L43.1298 52.3428L51.7383 21.7785L51.7398 21.7731C51.854 21.3794 51.8606 20.9622 51.759 20.565C51.6569 20.1659 51.4493 19.8017 51.1581 19.5104C50.8668 19.2191 50.5026 19.0116 50.1035 18.9095ZM49.4418 20.8526L49.1707 19.89L49.4514 20.8498C49.5024 20.8349 49.5564 20.834 49.6079 20.8471C49.6593 20.8603 49.7063 20.8871 49.7439 20.9246C49.7814 20.9622 49.8082 21.0091 49.8214 21.0606C49.8345 21.1121 49.8336 21.1661 49.8187 21.2171L49.8186 21.2171L49.8159 21.2267L41.2026 51.808L41.2026 51.808L41.2006 51.8153C41.1836 51.8773 41.148 51.9326 41.0985 51.9736C41.049 52.0146 40.9881 52.0393 40.9241 52.0444C40.86 52.0496 40.7959 52.0348 40.7406 52.0022C40.6852 51.9696 40.6412 51.9207 40.6147 51.8622L40.6082 51.8483L34.0646 38.0181L40.9856 31.0971C41.3761 30.7066 41.3761 30.0734 40.9856 29.6829C40.5951 29.2924 39.9619 29.2924 39.5714 29.6829L32.6505 36.6038L18.8202 30.0603L18.8063 30.0538C18.7478 30.0272 18.6989 29.9833 18.6663 29.9279C18.6337 29.8725 18.6189 29.8085 18.624 29.7444C18.6292 29.6803 18.6539 29.6194 18.6949 29.57C18.7359 29.5205 18.7912 29.4848 18.8531 29.4679L18.8531 29.4679L18.8605 29.4658L49.4418 20.8526Z" fill="#9055FD"/>
<rect x="1.16797" y="0.5" width="69" height="69" rx="34.5" stroke="#9055FD" stroke-dasharray="4 4"/>
</svg>
