<?xml version="1.0" encoding="UTF-8"?>
<svg id="Layer_1" data-name="Layer 1" xmlns="http://www.w3.org/2000/svg" viewBox="0 0 1080 1080">
  <defs>
    <style>
      .cls-1 {
        fill: #ef5320;
      }

      .cls-1, .cls-2 {
        stroke-width: 0px;
      }

      .cls-2 {
        fill: #0a223e;
      }
    </style>
  </defs>
  <path class="cls-1" d="m747.7,266.83v106.85h-42.82v-64.03h-226.5c-91.99,0-166.55,74.58-166.55,166.55v272.21l-42.82,21.5v-293.69c0-115.47,93.93-209.39,209.38-209.39h269.32Z"/>
  <path class="cls-1" d="m684.41,330.84v42.84h-203.86c-56.93,0-103.25,46.33-103.25,103.25v15.36l-42.85,21.52v-36.88c0-80.53,65.53-146.1,146.1-146.1h203.86Z"/>
  <polygon class="cls-2" points="377.28 609.35 747.7 412.68 747.7 460.6 334.46 678.74 334.46 539.86 377.28 518.38 377.28 609.35"/>
  <path class="cls-1" d="m768.18,402.41v201.39c0,91.99-74.56,166.56-166.56,166.56h-224.34v-63.3h-42.82v106.12h267.16c115.64,0,209.38-93.74,209.38-209.38v-222.89l-42.82,21.5Z"/>
  <path class="cls-1" d="m747.7,489.74v114.05c0,80.67-65.4,146.07-146.07,146.07h-203.86v-42.82h203.86c57.03,0,103.25-46.23,103.25-103.25v-92.55l42.82-21.5Z"/>
</svg>