<?xml version="1.0" encoding="UTF-8"?>
<svg id="Layer_1" data-name="Layer 1" xmlns="http://www.w3.org/2000/svg" viewBox="0 0 2464.87 418.18">
  <defs>
    <style>
      .cls-1 {
        fill: #ef5320;
      }

      .cls-1, .cls-2, .cls-3 {
        stroke-width: 0px;
      }

      .cls-2 {
        fill: #fff;
      }

      .cls-3 {
        fill: #0a223e;
      }
    </style>
  </defs>
  <rect class="cls-3" x=".43" y=".09" width="2464" height="418"/>
  <g>
    <g>
      <path class="cls-1" d="m353.18,19.78v74.05h-29.68v-44.37h-156.97c-63.75,0-115.42,51.69-115.42,115.42v188.64l-29.68,14.9v-203.53C21.43,84.88,86.53,19.78,166.53,19.78h186.64Z"/>
      <path class="cls-1" d="m309.32,64.14v29.69h-141.28c-39.45,0-71.55,32.1-71.55,71.55v10.65l-29.69,14.92v-25.56c0-55.81,45.41-101.25,101.25-101.25h141.28Z"/>
      <polygon class="cls-3" points="96.47 257.15 353.18 120.86 353.18 154.07 66.8 305.24 66.8 209 96.47 194.11 96.47 257.15"/>
      <path class="cls-1" d="m367.37,113.74v139.56c0,63.75-51.67,115.42-115.42,115.42H96.47v-43.87h-29.67v73.54h185.15c80.14,0,145.1-64.96,145.1-145.1V98.84l-29.67,14.9Z"/>
      <path class="cls-1" d="m353.18,174.26v79.04c0,55.91-45.33,101.23-101.23,101.23H110.67v-29.68h141.28c39.52,0,71.56-32.04,71.56-71.56v-64.14l29.68-14.9Z"/>
    </g>
    <g>
      <path class="cls-2" d="m633.9,132.51c11.78,3.94,22.58,7.95,32.4,12.05,9.81,4.12,18.38,9.03,25.7,14.73,7.31,5.71,13.03,12.58,17.13,20.62,4.1,8.03,6.16,17.59,6.16,28.65v.54c0,27.13-9.02,48.38-27.04,63.72-18.03,15.35-43.29,23.02-75.78,23.02-20.35,0-40.35-3.51-59.98-10.52-19.64-7.02-38.02-17.02-55.16-29.98l-.54-.54.54-.54,36.41-57.49.54.54c10.71,11.43,22.84,20.08,36.41,25.97,13.56,5.89,28.02,8.84,43.37,8.84,21.06,0,31.6-6.76,31.6-20.3,0-6.41-3.4-11.21-10.17-14.42-6.79-3.2-14.82-6.23-24.1-9.09-1.79-.7-3.48-1.15-5.09-1.33-1.61-.17-3.31-.62-5.09-1.34-10.71-2.85-21.42-5.97-32.13-9.35-10.71-3.37-20.35-8.02-28.91-13.88-8.57-5.88-15.63-13.35-21.15-22.43-5.54-9.09-8.3-20.75-8.3-35v-1.06c0-12.47,2.32-23.87,6.96-34.19,4.64-10.33,11.24-19.23,19.81-26.71,8.57-7.48,18.92-13.26,31.06-17.36,12.13-4.09,25.52-6.14,40.16-6.14,17.14,0,34.45,2.6,51.94,7.77,17.49,5.18,33.74,12.76,48.73,22.76v1.07l-32.66,59.44-.54-.54c-8.22-8.21-18.4-14.72-30.52-19.55-12.14-4.82-25-7.23-38.56-7.23-2.5,0-5.35.19-8.57.54-3.21.36-6.16,1.26-8.84,2.68-2.68,1.43-4.91,3.31-6.69,5.62-1.79,2.33-2.68,5.63-2.68,9.91,0,3.22,1.42,6.16,4.28,8.84,2.86,2.68,6.51,5.18,10.98,7.5,4.46,2.32,9.45,4.55,14.99,6.7,5.53,2.14,10.98,4.11,16.33,5.89,1.07,0,2.23.18,3.48.54,1.25.36,2.41.73,3.48,1.07Z"/>
      <path class="cls-2" d="m898.99,19.51c19.28,0,37.49,3.67,54.62,10.98,17.13,7.33,32.04,17.32,44.72,29.99,12.67,12.68,22.67,27.41,29.99,44.19,7.31,16.78,10.98,34.8,10.98,54.08s-3.66,38.02-10.98,55.15c-7.32,17.14-17.32,32.05-29.99,44.72-12.68,12.68-27.58,22.67-44.72,29.99-17.13,7.31-35.34,10.98-54.62,10.98-26.43,0-48.38-7.09-65.87-21.25v-.53l26.77-48.92.54.54c9.64,4.28,19.45,6.42,29.45,6.42s20.17-1.97,29.45-5.92c9.28-3.96,17.41-9.44,24.37-16.45,6.96-7.01,12.4-15.19,16.33-24.53,3.93-9.35,5.89-19.41,5.89-30.21s-1.96-20.22-5.89-29.39c-3.93-9.17-9.37-17.17-16.33-24-6.96-6.82-15.09-12.22-24.37-16.18-9.29-3.95-19.1-5.93-29.45-5.93s-20.62,1.97-29.72,5.9c-9.1,3.94-17.05,9.31-23.83,16.1-6.79,6.79-12.14,14.75-16.06,23.88-3.94,9.11-5.89,18.86-5.89,29.23v240.33h-72.29V23.8h72.29v36.07c19.28-26.9,47.48-40.36,84.61-40.36Z"/>
      <path class="cls-2" d="m1199.96,19.51c18.92,0,36.76,3.67,53.55,10.98,16.78,7.33,31.41,17.24,43.91,29.72,12.49,12.51,22.4,27.13,29.72,43.91,7.31,16.79,10.98,34.81,10.98,54.09,0,10.36-1.07,20.35-3.21,29.99l-.54,1.07h-136.02l-34.27-54.63h101.75c-5.01-14.99-13.3-27.31-24.9-36.95-11.61-9.64-25.27-14.46-40.97-14.46-9.64,0-18.74,1.96-27.31,5.88-8.57,3.92-15.98,9.16-22.22,15.74-6.25,6.57-11.16,14.41-14.73,23.47-3.57,9.08-5.35,18.95-5.35,29.62,0,8.18,1.61,16.63,4.82,25.35,3.21,8.71,7.85,16.63,13.92,23.74,6.07,7.12,13.39,13.07,21.95,17.88,8.57,4.81,18.21,7.2,28.92,7.2,9.64,0,18.47-1.34,26.51-4.01,8.03-2.68,15.61-8.66,22.76-17.94l.54-.54,1.07.54,62.12,27.35-1.07,1.09c-12.85,18.01-29.19,32.04-49,42.12-19.81,10.08-40.79,15.11-62.92,15.11-19.28,0-37.4-3.57-54.36-10.71-16.96-7.14-31.69-16.95-44.18-29.45-12.5-12.49-22.41-27.12-29.72-43.91-7.32-16.78-10.98-34.62-10.98-53.55s3.66-37.31,10.98-54.09c7.31-16.78,17.22-31.4,29.72-43.91,12.49-12.49,27.22-22.39,44.18-29.72,16.95-7.31,35.08-10.98,54.36-10.98Z"/>
      <path class="cls-2" d="m1364.9,23.8h72.83v267.76h-72.83V23.8Zm247.41,31.06c8.92,11.06,15.35,24.99,19.28,41.77,3.92,16.79,5.89,37.48,5.89,62.12v132.81h-72.83v-133.15c0-10.02-.27-19.6-.81-28.73-.54-9.11-2.41-17.18-5.62-24.15-3.21-6.98-8.39-12.44-15.53-16.38-7.15-3.94-17.32-5.91-30.52-5.91-12.5,0-24.1,2.68-34.81,8.03v.54l-.54-.54-26.24-46.27.54-.53c18.56-16.63,41.77-24.96,69.62-24.96,42.84,0,73.36,11.78,91.57,35.35Z"/>
      <path class="cls-2" d="m1862.4,189.28l57.83,38.02-.54.54c-12.5,21.42-29.37,38.21-50.61,50.34-21.24,12.14-44.18,18.2-68.81,18.2-19.28,0-37.31-3.66-54.09-10.98-16.79-7.31-31.42-17.22-43.91-29.72-12.5-12.49-22.41-27.12-29.72-43.91-7.32-16.78-10.98-34.62-10.98-53.55s3.66-36.77,10.98-53.55c7.31-16.78,17.22-31.41,29.72-43.92,12.49-12.49,27.13-22.39,43.91-29.72,16.78-7.31,34.81-10.98,54.09-10.98,24.63,0,47.57,6.08,68.81,18.21,21.24,12.14,38.11,28.92,50.61,50.34l.54.54-58.37,38.02-.54-.54c-5.72-13.2-14.02-23.91-24.9-32.13-10.9-8.22-22.94-12.32-36.15-12.32-9.64,0-18.66,2.06-27.05,6.16-8.39,4.11-15.62,9.64-21.69,16.6-6.08,6.96-10.9,14.99-14.46,24.1-3.57,9.1-5.35,18.83-5.35,29.19s1.78,20,5.35,28.92c3.56,8.92,8.38,16.69,14.46,23.29,6.07,6.61,13.29,11.78,21.69,15.53,8.38,3.75,17.41,5.62,27.05,5.62,13.2,0,25.25-3.66,36.15-10.98,10.89-7.31,19.18-17.58,24.9-30.79l.54-1.07.54.54Z"/>
      <path class="cls-2" d="m2060,19.51c18.92,0,36.76,3.67,53.55,10.98,16.78,7.33,31.41,17.24,43.91,29.72,12.49,12.51,22.4,27.13,29.72,43.91,7.31,16.79,10.98,34.81,10.98,54.09,0,10.36-1.07,20.35-3.21,29.99l-.54,1.07h-136.02l-34.27-54.63h101.75c-5.01-14.99-13.3-27.31-24.9-36.95-11.61-9.64-25.27-14.46-40.97-14.46-9.64,0-18.74,1.96-27.31,5.88-8.57,3.92-15.98,9.16-22.22,15.74-6.25,6.57-11.16,14.41-14.73,23.47-3.57,9.08-5.35,18.95-5.35,29.62,0,8.18,1.61,16.63,4.82,25.35,3.21,8.71,7.85,16.63,13.92,23.74,6.07,7.12,13.39,13.07,21.95,17.88,8.57,4.81,18.21,7.2,28.92,7.2,9.64,0,18.47-1.34,26.51-4.01,8.03-2.68,15.61-8.66,22.76-17.94l.54-.54,1.07.54,62.12,27.35-1.07,1.09c-12.85,18.01-29.19,32.04-49,42.12-19.81,10.08-40.79,15.11-62.92,15.11-19.28,0-37.4-3.57-54.36-10.71-16.96-7.14-31.69-16.95-44.18-29.45-12.5-12.49-22.41-27.12-29.72-43.91-7.32-16.78-10.98-34.62-10.98-53.55s3.66-37.31,10.98-54.09c7.31-16.78,17.22-31.4,29.72-43.91,12.49-12.49,27.22-22.39,44.18-29.72,16.95-7.31,35.08-10.98,54.36-10.98Z"/>
      <path class="cls-2" d="m2443.43,34.51l-6.43,10.71-27.31,48.73-.54-.54c-11.78-6.77-24.46-10.17-38.02-10.17-9.29,0-18.03,1.53-26.24,4.56-8.22,3.04-15.53,7.32-21.95,12.85-6.43,5.54-11.88,12.05-16.34,19.55-4.47,7.5-7.41,15.53-8.83,24.1v147.27h-72.83V23.8h72.83v34.8c18.92-26.05,46.59-39.09,83-39.09,21.42,0,42.12,5.01,62.12,15h.54Z"/>
    </g>
  </g>
</svg>