<svg width="10" height="8" viewBox="0 0 10 8" fill="none" xmlns="http://www.w3.org/2000/svg">
<path d="M8.85063 0.207011C8.91267 0.141469 8.98672 0.0894006 9.06844 0.0538547C9.15016 0.0183089 9.23791 0 9.32655 0C9.41519 0 9.50293 0.0183089 9.58465 0.0538547C9.66637 0.0894006 9.74042 0.141469 9.80247 0.207011C10.0625 0.47903 10.0661 0.918591 9.81156 1.19532L4.43599 7.7746C4.37496 7.84399 4.3009 7.89976 4.21833 7.93849C4.13577 7.97723 4.04644 7.99812 3.95581 7.99988C3.86518 8.00164 3.77515 7.98424 3.69124 7.94874C3.60733 7.91324 3.5313 7.86039 3.46779 7.79343L0.196815 4.36166C0.0706642 4.22846 0 4.04935 0 3.8628C0 3.67625 0.0706642 3.49714 0.196815 3.36394C0.258858 3.2984 0.332907 3.24633 0.414627 3.21078C0.496347 3.17524 0.584095 3.15693 0.672734 3.15693C0.761373 3.15693 0.849121 3.17524 0.930841 3.21078C1.01256 3.24633 1.08661 3.2984 1.14865 3.36394L3.92325 6.2752L8.83245 0.227719C8.8381 0.220444 8.84417 0.213529 8.85063 0.207011Z" fill="white"/>
</svg>
